<svg xmlns="http://www.w3.org/2000/svg" width="30.013" height="24.037" viewBox="0 0 30.013 24.037">
  <g id="Gruppe_1247" data-name="Gruppe 1247" transform="translate(0.5 0.5)">
    <path id="Pfad_160" data-name="Pfad 160" d="M17.912,20.626l4.577-.008c4.142,0,7.89-2.789,6.829-7.31A4.31,4.31,0,0,0,24.746,10a4.162,4.162,0,0,0-1.494.28,8.213,8.213,0,0,0-7.909-6.789A8.033,8.033,0,0,0,8.2,8.033a6.72,6.72,0,0,0-7.7,6.173L.5,14.985a5.66,5.66,0,0,0,5.66,5.66l5.779-.009" transform="translate(-0.5 -3.488)" fill="none" stroke="#699eba" stroke-miterlimit="10" stroke-width="1"/>
    <path id="Pfad_161" data-name="Pfad 161" d="M8.2,8.033A6.541,6.541,0,0,1,11.293,9.45" transform="translate(-0.5 -3.488)" fill="none" stroke="#699eba" stroke-linecap="round" stroke-miterlimit="10" stroke-width="1"/>
    <path id="Pfad_162" data-name="Pfad 162" d="M23.252,10.277a3.763,3.763,0,0,0-2.026,1.753" transform="translate(-0.5 -3.488)" fill="none" stroke="#699eba" stroke-linecap="round" stroke-miterlimit="10" stroke-width="1"/>
    <line id="Linie_682" data-name="Linie 682" y2="14.068" transform="translate(14.49 9.469)" fill="#eef3f7" stroke="#699eba" stroke-miterlimit="10" stroke-width="1"/>
    <path id="Pfad_163" data-name="Pfad 163" d="M11.6,16.384l3.393-3.393,3.393,3.393" transform="translate(-0.5 -3.488)" fill="none" stroke="#699eba" stroke-linecap="round" stroke-linejoin="round" stroke-width="1"/>
  </g>
</svg>
