<svg xmlns="http://www.w3.org/2000/svg" xmlns:xlink="http://www.w3.org/1999/xlink" width="56" height="56" viewBox="0 0 56 56">
  <defs>
    <clipPath id="clip-path">
      <rect width="56" height="56" fill="none"/>
    </clipPath>
  </defs>
  <g id="Komponente" clip-path="url(#clip-path)">
    <rect id="Rechteck_259" data-name="Rechteck 259" width="56" height="56" rx="20" fill="#699eba" opacity="0.5"/>
    <g id="Gruppe_1251" data-name="Gruppe 1251" transform="translate(13.896 13.814)">
      <path id="Pfad_170" data-name="Pfad 170" d="M13.188,1.445a9.35,9.35,0,0,0-1.377-.329A9.687,9.687,0,0,0,10.318,1,9.251,9.251,0,0,0,1,10.185a9.252,9.252,0,0,0,9.318,9.186,9.069,9.069,0,0,0,1.1-.064v0c.236-.025.467-.061.7-.105A9.155,9.155,0,0,0,13.188,1.445Z" transform="translate(0 0)" fill="none" stroke="#fff" stroke-linecap="round" stroke-miterlimit="10" stroke-width="2"/>
      <line id="Linie_689" data-name="Linie 689" x2="9.624" y2="9.624" transform="translate(16.581 16.985)" fill="none" stroke="#fff" stroke-linecap="round" stroke-miterlimit="10" stroke-width="2"/>
    </g>
  </g>
</svg>
