<svg xmlns="http://www.w3.org/2000/svg" width="29" height="29.165" viewBox="0 0 29 29.165">
  <g id="Gruppe_1453" data-name="Gruppe 1453" transform="translate(-0.5 -0.5)">
    <path id="Pfad_347" data-name="Pfad 347" d="M13.415,1.453a9.525,9.525,0,0,0-1.4-.335A9.868,9.868,0,0,0,10.492,1,9.424,9.424,0,0,0,1,10.356a9.424,9.424,0,0,0,9.492,9.357,9.238,9.238,0,0,0,1.122-.065v0c.24-.025.476-.062.708-.107A9.325,9.325,0,0,0,13.415,1.453Zm-1.151,14.68c-.1.032-.207.061-.31.086a6.167,6.167,0,0,1-1.462.175A6.033,6.033,0,1,1,13.076,4.882a6.006,6.006,0,0,1-.812,11.251Z" fill="none" stroke="#699eba" stroke-miterlimit="10" stroke-width="1"/>
    <path id="Pfad_348" data-name="Pfad 348" d="M18.464,15.442l9.868,9.728a2.216,2.216,0,0,1,0,3.172,2.3,2.3,0,0,1-3.218,0l-9.972-9.83" fill="none" stroke="#699eba" stroke-miterlimit="10" stroke-width="1"/>
  </g>
</svg>
