<svg xmlns="http://www.w3.org/2000/svg" xmlns:xlink="http://www.w3.org/1999/xlink" viewBox="0 0 131.13 133.75"><defs><style>.cls-1,.cls-12,.cls-13,.cls-14,.cls-15{fill:none;}.cls-2{opacity:0.4;}.cls-3{fill:url(#Unbenannter_Verlauf_6);}.cls-4{fill:url(#Unbenannter_Verlauf_6-2);}.cls-5{opacity:0.2;}.cls-6{fill:url(#Unbenannter_Verlauf_6-3);}.cls-7{opacity:0.5;}.cls-8{fill:#699eba;}.cls-9{fill:#fff;}.cls-10{opacity:0.8;}.cls-11{fill:#002b49;}.cls-12,.cls-13{stroke:#fff;}.cls-12,.cls-13,.cls-14{stroke-miterlimit:10;}.cls-12{stroke-width:1.39px;}.cls-13{stroke-width:1.38px;}.cls-14,.cls-15{stroke:#fa001f;}.cls-15{stroke-miterlimit:1;}.cls-16{clip-path:url(#clip-path);}.cls-17{clip-path:url(#clip-path-2);}</style><linearGradient id="Unbenannter_Verlauf_6" x1="71.6" y1="133.75" x2="71.6" y2="23.64" gradientUnits="userSpaceOnUse"><stop offset="0" stop-color="#fff" stop-opacity="0"/><stop offset="0.19" stop-color="#d2e2ea" stop-opacity="0.3"/><stop offset="0.38" stop-color="#accad9" stop-opacity="0.55"/><stop offset="0.56" stop-color="#8fb7cc" stop-opacity="0.75"/><stop offset="0.73" stop-color="#7aa9c2" stop-opacity="0.89"/><stop offset="0.88" stop-color="#6da1bc" stop-opacity="0.97"/><stop offset="1" stop-color="#699eba"/></linearGradient><linearGradient id="Unbenannter_Verlauf_6-2" x1="30.57" y1="97.56" x2="30.57" y2="36.43" xlink:href="#Unbenannter_Verlauf_6"/><linearGradient id="Unbenannter_Verlauf_6-3" x1="11.94" y1="26.57" x2="11.94" y2="11.94" xlink:href="#Unbenannter_Verlauf_6"/><clipPath id="clip-path"><rect class="cls-1" x="103.14" y="53.47" width="6.71" height="6.71" transform="translate(-4.45 9.26) rotate(-4.88)"/></clipPath><clipPath id="clip-path-2"><rect class="cls-1" x="20.75" y="48.14" width="5.3" height="19.68" transform="translate(-4.85 2.2) rotate(-4.88)"/></clipPath></defs><title>advanced</title><g id="Ebene_2" data-name="Ebene 2"><g id="Ebene_2-2" data-name="Ebene 2"><g class="cls-2"><circle class="cls-3" cx="71.6" cy="78.7" r="55.06"/></g><g class="cls-2"><circle class="cls-4" cx="30.57" cy="67" r="30.57"/></g><g class="cls-5"><circle class="cls-6" cx="11.94" cy="19.26" r="7.32"/></g><g id="Rechnung" class="cls-7"><rect class="cls-8" x="42.31" y="29.29" width="86.66" height="61.06" transform="translate(18.26 139.64) rotate(-84.77)"/><path class="cls-9" d="M59.52,14.27l60.09,5.51-7.84,85.58L51.68,99.85l7.84-85.58m-.65-.78-8,87,61.52,5.64,8-87L58.87,13.49Z"/></g><g id="Rechnung-2" data-name="Rechnung" class="cls-10"><rect class="cls-8" x="48.1" y="1.02" width="61.06" height="86.66" transform="translate(-0.95 1.72) rotate(-1.25)"/><path class="cls-9" d="M107.86.73l1.87,85.92L49.4,88,47.53,2.05,107.86.73m.7-.73L46.79,1.35,48.7,88.7l61.76-1.35L108.56,0Z"/></g><g id="Rechnung_1" data-name="Rechnung 1"><rect class="cls-11" x="27.27" y="11.81" width="76.08" height="107.91" transform="translate(-5.36 5.79) rotate(-4.88)"/><path class="cls-9" d="M98.27,9.19l9.11,106.75-75,6.4L23.24,15.59l75-6.4m.7-.83L22.41,14.89l9.24,108.28,76.56-6.53L99,8.36Z"/><g class="cls-10"><g class="cls-7"><line class="cls-12" x1="33.9" y1="29.34" x2="40.75" y2="28.76"/></g><g class="cls-7"><line class="cls-12" x1="37.18" y1="74.44" x2="44.03" y2="73.85"/></g><g class="cls-7"><line class="cls-12" x1="47.19" y1="73.62" x2="54.04" y2="73.04"/></g><g class="cls-7"><line class="cls-12" x1="57.71" y1="100.77" x2="64.56" y2="100.19"/></g><g class="cls-7"><line class="cls-12" x1="50.65" y1="107.44" x2="57.51" y2="106.86"/></g><g class="cls-7"><line class="cls-12" x1="84.79" y1="98.46" x2="91.65" y2="97.87"/></g><g class="cls-7"><line class="cls-12" x1="38.65" y1="91.08" x2="45.51" y2="90.49"/></g><g class="cls-7"><line class="cls-12" x1="56.63" y1="72.82" x2="63.49" y2="72.23"/></g><g class="cls-7"><line class="cls-12" x1="62.13" y1="89.11" x2="68.99" y2="88.53"/></g><g class="cls-7"><line class="cls-12" x1="66.08" y1="72.01" x2="72.93" y2="71.43"/></g><g class="cls-7"><line class="cls-12" x1="78.98" y1="76.7" x2="85.83" y2="76.11"/></g><g class="cls-7"><line class="cls-12" x1="80.07" y1="70.82" x2="93.88" y2="69.64"/></g><g class="cls-7"><line class="cls-12" x1="81.05" y1="82.31" x2="94.86" y2="81.13"/></g><g class="cls-7"><line class="cls-12" x1="76.67" y1="87.87" x2="90.48" y2="86.69"/></g><g class="cls-7"><line class="cls-12" x1="62.86" y1="78.07" x2="76.67" y2="76.9"/></g><g class="cls-7"><line class="cls-13" x1="34.29" y1="33.92" x2="48" y2="32.76"/></g><g class="cls-7"><line class="cls-13" x1="79.69" y1="25.43" x2="90.03" y2="24.55"/></g><g class="cls-7"><line class="cls-13" x1="80.08" y1="30.02" x2="90.42" y2="29.13"/></g><g class="cls-7"><line class="cls-13" x1="80.48" y1="34.6" x2="90.81" y2="33.72"/></g><g class="cls-7"><line class="cls-13" x1="50.24" y1="79.41" x2="60.57" y2="78.53"/></g><g class="cls-7"><line class="cls-13" x1="87.33" y1="104.31" x2="97.66" y2="103.43"/></g><g class="cls-7"><line class="cls-13" x1="73.94" y1="105.46" x2="84.28" y2="104.57"/></g><g class="cls-7"><line class="cls-13" x1="44.72" y1="101.82" x2="55.06" y2="100.94"/></g><g class="cls-7"><line class="cls-13" x1="67.2" y1="99.9" x2="77.54" y2="99.02"/></g><g class="cls-7"><line class="cls-13" x1="60.56" y1="106.6" x2="70.89" y2="105.72"/></g><g class="cls-7"><line class="cls-13" x1="48.94" y1="90.24" x2="59.27" y2="89.36"/></g><g class="cls-7"><line class="cls-13" x1="37.59" y1="80.49" x2="47.93" y2="79.61"/></g><g class="cls-7"><line class="cls-13" x1="38.06" y1="85.98" x2="48.4" y2="85.09"/></g><g class="cls-7"><line class="cls-13" x1="34.87" y1="38.55" x2="59.35" y2="36.46"/></g><g class="cls-7"><line class="cls-13" x1="50.47" y1="84.92" x2="74.95" y2="82.83"/></g><g class="cls-7"><line class="cls-13" x1="39.54" y1="96.62" x2="64.01" y2="94.53"/></g><g class="cls-7"><line class="cls-13" x1="66.39" y1="94.29" x2="90.87" y2="92.2"/></g><g class="cls-7"><line class="cls-13" x1="35.48" y1="43.09" x2="40.96" y2="42.62"/></g><g class="cls-7"><line class="cls-13" x1="75.52" y1="71.21" x2="77.48" y2="71.04"/></g><g class="cls-7"><line class="cls-13" x1="92.41" y1="75.55" x2="94.37" y2="75.38"/></g><g class="cls-7"><line class="cls-13" x1="88.14" y1="75.92" x2="90.1" y2="75.75"/></g><g class="cls-7"><line class="cls-13" x1="77.02" y1="82.65" x2="78.98" y2="82.48"/></g><g class="cls-7"><line class="cls-13" x1="71.85" y1="88.28" x2="73.81" y2="88.12"/></g><g class="cls-7"><line class="cls-13" x1="93.34" y1="86.45" x2="95.3" y2="86.28"/></g><g class="cls-7"><line class="cls-13" x1="93.81" y1="91.95" x2="95.76" y2="91.78"/></g><g class="cls-7"><line class="cls-13" x1="94.29" y1="97.66" x2="96.25" y2="97.49"/></g><g class="cls-7"><line class="cls-13" x1="40.12" y1="102.28" x2="42.08" y2="102.12"/></g><g class="cls-7"><line class="cls-13" x1="40.64" y1="108.3" x2="42.59" y2="108.13"/></g><g class="cls-7"><line class="cls-13" x1="45.64" y1="107.87" x2="47.6" y2="107.7"/></g><g class="cls-7"><line class="cls-13" x1="80.19" y1="98.86" x2="82.15" y2="98.7"/></g></g></g><circle class="cls-14" cx="81.34" cy="56.3" r="1.85"/><circle class="cls-14" cx="48.73" cy="45.61" r="1.85"/><circle class="cls-14" cx="39.4" cy="33.76" r="1.85"/><circle class="cls-14" cx="22.01" cy="48.2" r="1.85"/><circle class="cls-14" cx="41.06" cy="60.85" r="1.85"/><circle class="cls-14" cx="39.35" cy="72.02" r="1.85"/><circle class="cls-14" cx="90.7" cy="47.15" r="1.85"/><circle class="cls-14" cx="108.5" cy="53.49" r="1.85"/><circle class="cls-14" cx="120.78" cy="50.22" r="1.85"/><circle class="cls-14" cx="128.78" cy="33.87" r="1.85"/><circle class="cls-14" cx="62.33" cy="60.21" r="1.85"/><circle class="cls-14" cx="68.06" cy="68.36" r="1.85"/><line class="cls-15" x1="80.04" y1="57.62" x2="69.22" y2="67.44"/><line class="cls-15" x1="82.63" y1="54.97" x2="89.29" y2="48.35"/><line class="cls-15" x1="83.32" y1="56.43" x2="106.66" y2="53.71"/><line class="cls-15" x1="106.72" y1="52.98" x2="91.9" y2="48.56"/><line class="cls-15" x1="110.34" y1="53.27" x2="118.94" y2="50.44"/><line class="cls-15" x1="109.72" y1="52.11" x2="127.44" y2="35.2"/><line class="cls-15" x1="79.49" y1="56.3" x2="64.16" y2="59.9"/><line class="cls-15" x1="66.86" y1="66.95" x2="62.94" y2="61.96"/><line class="cls-15" x1="49.45" y1="47.31" x2="61.13" y2="58.8"/><line class="cls-15" x1="50.43" y1="46.34" x2="80.01" y2="55"/><line class="cls-15" x1="48" y1="47.31" x2="41.65" y2="59.35"/><line class="cls-15" x1="47.68" y1="44.09" x2="40.59" y2="35.17"/><line class="cls-15" x1="23.66" y1="47.38" x2="37.94" y2="34.89"/><line class="cls-15" x1="23.03" y1="49.76" x2="38.15" y2="70.61"/><line class="cls-15" x1="41.06" y1="62.71" x2="39.91" y2="70.06"/><line class="cls-15" x1="40.06" y1="59.3" x2="23.99" y2="48.73"/><line class="cls-15" x1="39.4" y1="35.61" x2="40.73" y2="59.03"/><line class="cls-15" x1="42.85" y1="60.38" x2="60.6" y2="60.85"/><g class="cls-16"><line class="cls-15" x1="107.09" y1="54.69" x2="101.25" y2="59.9"/></g><g class="cls-17"><line class="cls-15" x1="22.45" y1="50.23" x2="27.98" y2="68.98"/></g></g></g></svg>