<svg xmlns="http://www.w3.org/2000/svg" viewBox="0 0 141.27 127.21"><defs><style>.cls-1{opacity:0.1;}.cls-2{fill:#699eba;}.cls-3{fill:#fff;}.cls-4{opacity:0.2;}.cls-5{opacity:0.4;}.cls-6{opacity:0.6;}.cls-7{opacity:0.8;}.cls-8{fill:#002b49;}.cls-9{opacity:0.5;}.cls-10,.cls-11,.cls-12{fill:none;stroke-miterlimit:10;}.cls-10,.cls-11{stroke:#fff;}.cls-10{stroke-width:1.39px;}.cls-11{stroke-width:1.38px;}.cls-12{stroke:#fa001f;stroke-linecap:round;}</style></defs><title>feature3</title><g id="Ebene_2" data-name="Ebene 2"><g id="Ebene_1-2" data-name="Ebene 1"><g id="Rechnung" class="cls-1"><rect class="cls-2" x="-6.6" y="23.38" width="86.66" height="61.06" transform="translate(-21.81 82.69) rotate(-81.92)"/><path class="cls-3" d="M12.89,7.12,72.63,15.6,60.56,100.69.81,92.21,12.89,7.12m-.61-.81L0,92.82l61.17,8.68L73.45,15,12.28,6.31Z"/></g><g id="Rechnung-2" data-name="Rechnung" class="cls-4"><rect class="cls-2" x="3.34" y="19.39" width="86.66" height="61.06" transform="translate(-13.17 82.93) rotate(-75.82)"/><path class="cls-3" d="M27.94.87l58.5,14.79L65.39,99,6.88,84.19,27.94.87M27.42,0,6,84.71l59.9,15.14L87.32,15.14,27.42,0Z"/></g><g id="Rechnung-3" data-name="Rechnung" class="cls-5"><rect class="cls-2" x="17.64" y="37.63" width="86.66" height="61.06" transform="translate(-16.88 116.13) rotate(-79.83)"/><path class="cls-3" d="M38.86,20.54l59.4,10.65L83.08,115.78l-59.4-10.66L38.86,20.54m-.58-.84-15.43,86,60.81,10.91,15.43-86L38.28,19.7Z"/></g><g id="Rechnung-4" data-name="Rechnung" class="cls-6"><rect class="cls-2" x="28.26" y="32.76" width="61.06" height="86.66" transform="matrix(1, -0.03, 0.03, 1, -2.42, 1.93)"/><path class="cls-3" d="M87.56,32.17l2.76,85.89L30,120,27.25,34.11l60.31-1.94m.7-.74-61.75,2,2.81,87.33,61.74-2-2.8-87.33Z"/></g><g id="Rechnung-5" data-name="Rechnung" class="cls-7"><rect class="cls-2" x="47.66" y="38.16" width="61.06" height="86.66" transform="translate(-5.46 5.62) rotate(-3.98)"/><path class="cls-3" d="M105.31,36.53l6,85.73-60.2,4.19-6-85.73,60.2-4.19m.67-.76L44.35,40.05l6,87.16L112,122.93l-6-87.16Z"/></g><g id="Rechnung_1" data-name="Rechnung 1"><rect class="cls-8" x="61.14" y="10.86" width="76.08" height="107.91" transform="translate(-4.25 7.03) rotate(-3.98)"/><path class="cls-3" d="M133,8.76l7.42,106.88-75.12,5.22L57.9,14,133,8.76m.71-.82L57.08,13.27l7.53,108.41,76.66-5.32L133.74,7.94Z"/><g class="cls-7"><g class="cls-9"><line class="cls-10" x1="68.34" y1="27.9" x2="75.2" y2="27.42"/></g><g class="cls-9"><line class="cls-10" x1="70.91" y1="73.04" x2="77.77" y2="72.57"/></g><g class="cls-9"><line class="cls-10" x1="80.93" y1="72.39" x2="87.79" y2="71.91"/></g><g class="cls-9"><line class="cls-10" x1="91.02" y1="99.69" x2="97.88" y2="99.22"/></g><g class="cls-9"><line class="cls-10" x1="83.86" y1="106.26" x2="90.73" y2="105.78"/></g><g class="cls-9"><line class="cls-10" x1="118.14" y1="97.81" x2="125" y2="97.33"/></g><g class="cls-9"><line class="cls-10" x1="72.12" y1="89.7" x2="78.99" y2="89.22"/></g><g class="cls-9"><line class="cls-10" x1="90.39" y1="71.73" x2="97.25" y2="71.25"/></g><g class="cls-9"><line class="cls-10" x1="95.63" y1="88.11" x2="102.49" y2="87.63"/></g><g class="cls-9"><line class="cls-10" x1="99.84" y1="71.07" x2="106.71" y2="70.59"/></g><g class="cls-9"><line class="cls-10" x1="112.67" y1="75.96" x2="119.53" y2="75.48"/></g><g class="cls-9"><line class="cls-10" x1="113.85" y1="70.1" x2="127.68" y2="69.14"/></g><g class="cls-9"><line class="cls-10" x1="114.65" y1="81.6" x2="128.47" y2="80.64"/></g><g class="cls-9"><line class="cls-10" x1="110.19" y1="87.1" x2="124.01" y2="86.14"/></g><g class="cls-9"><line class="cls-10" x1="96.53" y1="77.08" x2="110.35" y2="76.12"/></g><g class="cls-9"><line class="cls-11" x1="68.66" y1="32.49" x2="82.38" y2="31.53"/></g><g class="cls-9"><line class="cls-11" x1="114.19" y1="24.71" x2="124.54" y2="23.99"/></g><g class="cls-9"><line class="cls-11" x1="114.51" y1="29.3" x2="124.86" y2="28.58"/></g><g class="cls-9"><line class="cls-11" x1="114.83" y1="33.89" x2="125.18" y2="33.17"/></g><g class="cls-9"><line class="cls-11" x1="83.89" y1="78.22" x2="94.24" y2="77.5"/></g><g class="cls-9"><line class="cls-11" x1="120.59" y1="103.7" x2="130.93" y2="102.98"/></g><g class="cls-9"><line class="cls-11" x1="107.18" y1="104.63" x2="117.53" y2="103.92"/></g><g class="cls-9"><line class="cls-11" x1="78.02" y1="100.54" x2="88.37" y2="99.82"/></g><g class="cls-9"><line class="cls-11" x1="100.53" y1="98.98" x2="110.88" y2="98.26"/></g><g class="cls-9"><line class="cls-11" x1="93.78" y1="105.57" x2="104.13" y2="104.85"/></g><g class="cls-9"><line class="cls-11" x1="82.42" y1="89.03" x2="92.77" y2="88.31"/></g><g class="cls-9"><line class="cls-11" x1="71.23" y1="79.1" x2="81.58" y2="78.38"/></g><g class="cls-9"><line class="cls-11" x1="71.61" y1="84.59" x2="81.96" y2="83.87"/></g><g class="cls-9"><line class="cls-11" x1="69.17" y1="37.12" x2="93.67" y2="35.42"/></g><g class="cls-9"><line class="cls-11" x1="84.04" y1="83.73" x2="108.54" y2="82.03"/></g><g class="cls-9"><line class="cls-11" x1="72.92" y1="95.26" x2="97.43" y2="93.55"/></g><g class="cls-9"><line class="cls-11" x1="99.8" y1="93.35" x2="124.31" y2="91.65"/></g><g class="cls-9"><line class="cls-11" x1="69.7" y1="41.67" x2="75.19" y2="41.29"/></g><g class="cls-9"><line class="cls-11" x1="109.3" y1="70.41" x2="111.26" y2="70.28"/></g><g class="cls-9"><line class="cls-11" x1="126.11" y1="75.03" x2="128.08" y2="74.89"/></g><g class="cls-9"><line class="cls-11" x1="121.84" y1="75.32" x2="123.8" y2="75.19"/></g><g class="cls-9"><line class="cls-11" x1="110.62" y1="81.88" x2="112.58" y2="81.74"/></g><g class="cls-9"><line class="cls-11" x1="105.36" y1="87.43" x2="107.32" y2="87.29"/></g><g class="cls-9"><line class="cls-11" x1="126.87" y1="85.94" x2="128.83" y2="85.8"/></g><g class="cls-9"><line class="cls-11" x1="127.26" y1="91.44" x2="129.22" y2="91.31"/></g><g class="cls-9"><line class="cls-11" x1="127.65" y1="97.16" x2="129.61" y2="97.03"/></g><g class="cls-9"><line class="cls-11" x1="73.42" y1="100.93" x2="75.38" y2="100.79"/></g><g class="cls-9"><line class="cls-11" x1="73.83" y1="106.95" x2="75.79" y2="106.82"/></g><g class="cls-9"><line class="cls-11" x1="78.85" y1="106.6" x2="80.81" y2="106.47"/></g><g class="cls-9"><line class="cls-11" x1="113.53" y1="98.14" x2="115.49" y2="98.01"/></g></g></g><path class="cls-12" d="M13,91.18S29.2,117.1,75.2,105.3"/><path class="cls-12" d="M12.46,77.39s3.66,17,21,19.16"/><path class="cls-12" d="M5.32,73.8s.35,8.52,3.88,12.82"/><path class="cls-12" d="M5.67,89.46s1.58,8.61,7.93,13.3"/></g></g></svg>