<svg xmlns="http://www.w3.org/2000/svg" xmlns:xlink="http://www.w3.org/1999/xlink" viewBox="0 0 138.3 124.45"><defs><style>.cls-1{opacity:0.4;}.cls-2{fill:url(#Unbenannter_Verlauf_6);}.cls-3{fill:url(#Unbenannter_Verlauf_6-2);}.cls-4{fill:url(#Unbenannter_Verlauf_6-3);}.cls-5{fill:#002b49;}.cls-6{fill:#fff;}.cls-10,.cls-7,.cls-8{fill:none;stroke-linecap:round;stroke-miterlimit:10;}.cls-7,.cls-8{stroke:#fa001f;}.cls-8{stroke-dasharray:2 2;}.cls-9{fill:#fa001f;}.cls-10{stroke:#fff;stroke-width:1.5px;}</style><linearGradient id="Unbenannter_Verlauf_6" x1="76.07" y1="124.45" x2="76.07" gradientUnits="userSpaceOnUse"><stop offset="0" stop-color="#fff" stop-opacity="0"/><stop offset="0.19" stop-color="#d2e2ea" stop-opacity="0.3"/><stop offset="0.38" stop-color="#accad9" stop-opacity="0.55"/><stop offset="0.56" stop-color="#8fb7cc" stop-opacity="0.75"/><stop offset="0.73" stop-color="#7aa9c2" stop-opacity="0.89"/><stop offset="0.88" stop-color="#6da1bc" stop-opacity="0.97"/><stop offset="1" stop-color="#699eba"/></linearGradient><linearGradient id="Unbenannter_Verlauf_6-2" x1="107.73" y1="61.13" x2="107.73" y2="0" xlink:href="#Unbenannter_Verlauf_6"/><linearGradient id="Unbenannter_Verlauf_6-3" x1="49.99" y1="113.21" x2="49.99" y2="13.24" xlink:href="#Unbenannter_Verlauf_6"/></defs><title>feature2</title><g id="Ebene_2" data-name="Ebene 2"><g id="Ebene_1-2" data-name="Ebene 1"><g class="cls-1"><circle class="cls-2" cx="76.07" cy="62.22" r="62.22"/></g><g class="cls-1"><circle class="cls-3" cx="107.73" cy="30.57" r="30.57"/></g><g class="cls-1"><circle class="cls-4" cx="49.99" cy="63.22" r="49.99"/></g><circle class="cls-5" cx="76.07" cy="62.22" r="42.3"/><path class="cls-6" d="M76.07,20.54A41.69,41.69,0,1,1,34.39,62.22,41.73,41.73,0,0,1,76.07,20.54m0-1.23A42.92,42.92,0,1,0,119,62.22,42.91,42.91,0,0,0,76.07,19.31Z"/><path class="cls-7" d="M39.85,98.1c.23.24.47.47.71.71"/><path class="cls-8" d="M42,100.17a51,51,0,0,0,68.48-.34"/><path class="cls-7" d="M111.24,99.15l.71-.7"/><path class="cls-7" d="M111.53,25.58A51,51,0,0,0,39.85,98.1"/><polygon class="cls-9" points="111.81 20.36 110.81 20.44 111.22 25.35 106.28 25.4 106.3 26.4 112.3 26.34 111.81 20.36"/><line class="cls-10" x1="56.04" y1="34.63" x2="76.07" y2="62.22"/><line class="cls-10" x1="93.53" y1="51.22" x2="76.07" y2="62.22"/></g></g></svg>