<svg xmlns="http://www.w3.org/2000/svg" xmlns:xlink="http://www.w3.org/1999/xlink" viewBox="0 0 103.43 128.58"><defs><style>.cls-1,.cls-4,.cls-5,.cls-9{fill:none;}.cls-2{fill:#002b49;}.cls-3{fill:#fff;}.cls-4{stroke:#fff;stroke-linecap:round;}.cls-4,.cls-5{stroke-miterlimit:10;}.cls-5,.cls-9{stroke:#fa001f;}.cls-6{clip-path:url(#clip-path);}.cls-7{opacity:0.3;}.cls-8{fill:url(#Unbenannter_Verlauf_12);}.cls-9{stroke-miterlimit:1;}</style><clipPath id="clip-path"><path class="cls-1" d="M55.17,5.91l-6.74-5A3.16,3.16,0,0,0,44,.87L38.12,4.72a3.18,3.18,0,0,1-2.6.83L33,5.21a3.16,3.16,0,0,0-2.62.86l-9.24,3.1a2.73,2.73,0,0,0-.23.25L5.53,28a3.11,3.11,0,0,0-.69,2.52l.72,4.42a3.07,3.07,0,0,1-.2,1.72L.74,47.71a3.15,3.15,0,0,0,.15,2.73L8.33,63.91a3.18,3.18,0,0,1,.39,1.62l-.29,9.4a3.18,3.18,0,0,0,.94,2.35L14.21,82A3.14,3.14,0,0,1,15.08,85h0a3.14,3.14,0,0,0,.81,2.87L21.57,90a3.17,3.17,0,0,1,.8,2.88L21,98.91a3.15,3.15,0,0,0,2.08,3.69l20.47,6.86a3.13,3.13,0,0,0,3-.54l8.41-6.83a3.18,3.18,0,0,0,1.16-2.45V8.14A3.15,3.15,0,0,0,55.17,5.91Z"/></clipPath><linearGradient id="Unbenannter_Verlauf_12" x1="0.5" y1="54.81" x2="56.09" y2="54.81" gradientUnits="userSpaceOnUse"><stop offset="0" stop-color="#fff"/><stop offset="0.73" stop-color="#fa001f"/></linearGradient></defs><title>feature1</title><g id="Ebene_2" data-name="Ebene 2"><g id="Ebene_1-2" data-name="Ebene 1"><path class="cls-2" d="M69.79,105.47c-5.69,0-12.63-4.69-12.63-10.16V15.51h0v-.83a1.55,1.55,0,0,1,0-.22A9.75,9.75,0,0,1,75.25,9.41l.15.25.54,0a9.76,9.76,0,0,1,9.2,6.53l.1.27.28.06A16.28,16.28,0,0,1,98,37.67l-.1.29.22.22a16.31,16.31,0,0,1-2.79,25.37l-.3.19.08.34a16.19,16.19,0,0,1-7.5,17.73l-.39.23.19.41a8,8,0,0,1,.76,3.42A8.09,8.09,0,0,1,80.39,94l-.51,0,0,.52c0,.26,0,.52,0,.8A10.18,10.18,0,0,1,69.79,105.47Z"/><path class="cls-3" d="M66.92,5.22a9.18,9.18,0,0,1,7.9,4.45l.3.5.58,0h.24a9.27,9.27,0,0,1,8.73,6.19l.19.55.57.11A15.79,15.79,0,0,1,97.52,37.51l-.2.59.44.44a15.81,15.81,0,0,1-2.7,24.59l-.61.38.17.69a16.24,16.24,0,0,1,.43,3.61,15.7,15.7,0,0,1-7.71,13.57l-.77.46.38.82a7.61,7.61,0,0,1-6.58,10.81l-1,0,.08,1c0,.26,0,.51,0,.77A9.68,9.68,0,0,1,69.79,105c-5.46,0-12.13-4.46-12.13-9.66V16.14l.07,0,0-1.31c0-.06,0-.13,0-.19a1.15,1.15,0,0,1,0-.19,9.26,9.26,0,0,1,9.26-9.25m0-1A10.25,10.25,0,0,0,56.66,14.47c0,.14,0,.28,0,.42h0V95.31c0,5.89,7.24,10.66,13.13,10.66A10.67,10.67,0,0,0,80.46,95.31a7.58,7.58,0,0,0,0-.84,8.62,8.62,0,0,0,8.25-8.6,8.47,8.47,0,0,0-.81-3.63A16.7,16.7,0,0,0,95.59,64a16.81,16.81,0,0,0,2.88-26.14A16.81,16.81,0,0,0,85.61,16a10.25,10.25,0,0,0-9.67-6.86h-.27a10.24,10.24,0,0,0-8.75-4.93Z"/><path class="cls-4" d="M76.3,9.67s-4.92,0-8.2,5.74"/><path class="cls-4" d="M97.87,38a14.1,14.1,0,0,1-14.24,7.94"/><path class="cls-4" d="M81.61,93.93s-6.87,1.28-8.87-5.07"/><path class="cls-4" d="M75.38,35.47S84,35.62,84,43.2c0,6.75-8.68,10.15,1,15.15"/><path class="cls-4" d="M63.93,59.61s10.23.2,12,12.72"/><path class="cls-4" d="M66.65,70.88S75.46,76,82.26,69.46"/><path class="cls-4" d="M85.73,16.54S72.56,15.47,73.3,28"/><path class="cls-4" d="M56.66,39.91S66.23,27.71,73.15,42"/><path class="cls-4" d="M56.66,86.07s8.51,10.16,19.32,0"/><circle class="cls-5" cx="30.88" cy="118.16" r="1.85"/><circle class="cls-5" cx="49.48" cy="126.23" r="1.85"/><line class="cls-5" x1="44.05" y1="107.78" x2="48.88" y2="124.43"/><circle class="cls-5" cx="30.88" cy="118.16" r="1.85"/><circle class="cls-5" cx="2.35" cy="68.32" r="1.85"/><circle class="cls-5" cx="13.52" cy="6.64" r="1.85"/><circle class="cls-5" cx="49.48" cy="126.23" r="1.85"/><g class="cls-6"><g class="cls-7"><path class="cls-8" d="M55.17,5.91l-6.74-5A3.16,3.16,0,0,0,44,.87L38.12,4.72a3.18,3.18,0,0,1-2.6.83L33,5.21a3.16,3.16,0,0,0-2.62.86l-9.24,3.1a2.73,2.73,0,0,0-.23.25L5.53,28a3.11,3.11,0,0,0-.69,2.52l.72,4.42a3.07,3.07,0,0,1-.2,1.72L.74,47.71a3.15,3.15,0,0,0,.15,2.73L8.33,63.91a3.18,3.18,0,0,1,.39,1.62l-.29,9.4a3.18,3.18,0,0,0,.94,2.35L14.21,82A3.14,3.14,0,0,1,15.08,85h0a3.14,3.14,0,0,0,.81,2.87L21.57,90a3.17,3.17,0,0,1,.8,2.88L21,98.91a3.15,3.15,0,0,0,2.08,3.69l20.47,6.86a3.13,3.13,0,0,0,3-.54l8.41-6.83a3.18,3.18,0,0,0,1.16-2.45V8.14A3.15,3.15,0,0,0,55.17,5.91Z"/></g><line class="cls-5" x1="32.48" y1="96.29" x2="31.63" y2="100.05"/><polyline class="cls-5" points="41.91 105.44 32.98 102.44 32.97 102.44"/><line class="cls-5" x1="56.65" y1="95.31" x2="45.04" y2="104.75"/><polyline class="cls-5" points="14.14 39.54 9.88 49.76 17.73 63.97 17.46 72.5"/><polyline class="cls-5" points="18.8 75.71 25.46 82.24 24.66 85.87 31.55 93.06"/><path class="cls-5" d="M14.55,36,14,32.53,27.7,16l7-6.82,5.62.77,6-4.24,6.46,2.86,3.79,5.9s0,.27,0,.41h0"/><circle class="cls-5" cx="38.6" cy="40.81" r="1.85"/><circle class="cls-5" cx="30.2" cy="43.58" r="1.85"/><circle class="cls-5" cx="33.27" cy="30.21" r="1.85"/><circle class="cls-5" cx="49.38" cy="35.07" r="1.85"/><circle class="cls-5" cx="43.66" cy="61.1" r="1.85"/><circle class="cls-5" cx="35.71" cy="84.86" r="1.85"/><circle class="cls-5" cx="47.02" cy="75.57" r="1.85"/><circle class="cls-5" cx="43.66" cy="105.97" r="1.85"/><circle class="cls-5" cx="29.26" cy="68.54" r="1.85"/><circle class="cls-5" cx="17.55" cy="74.34" r="1.85"/><circle class="cls-5" cx="46.33" cy="90.59" r="1.85"/><circle class="cls-5" cx="32.73" cy="94.47" r="1.85"/><circle class="cls-5" cx="31.22" cy="101.85" r="1.85"/><circle class="cls-5" cx="13.35" cy="6.64" r="1.85"/><circle class="cls-5" cx="2.35" cy="68.39" r="1.85"/><circle class="cls-5" cx="33.86" cy="19.41" r="1.85"/><circle class="cls-5" cx="14.85" cy="37.83" r="1.85"/><line class="cls-9" x1="43.21" y1="59.31" x2="39.04" y2="42.6"/><line class="cls-9" x1="42.52" y1="59.65" x2="31.14" y2="45.17"/><line class="cls-9" x1="56.65" y1="39.92" x2="50.9" y2="36.09"/><line class="cls-9" x1="47.75" y1="35.93" x2="40.22" y2="39.94"/><line class="cls-5" x1="34.73" y1="9.19" x2="14.85" y2="6.64"/><line class="cls-9" x1="36.85" y1="41.42" x2="31.98" y2="43.12"/><line class="cls-9" x1="31.65" y1="31.09" x2="16.56" y2="37.14"/><line class="cls-9" x1="31.44" y1="30.49" x2="13.98" y2="32.53"/><line class="cls-9" x1="28.4" y1="43.14" x2="16.57" y2="38.5"/><line class="cls-9" x1="27.54" y1="69.23" x2="19.16" y2="73.45"/><line class="cls-9" x1="42.01" y1="61.93" x2="30.82" y2="67.57"/><polyline class="cls-9" points="2.75 66.99 9.88 49.76 41.91 60.51"/><line class="cls-5" x1="44.7" y1="89.73" x2="37.32" y2="85.75"/><line class="cls-5" x1="56.65" y1="86.08" x2="48" y2="89.84"/><polyline class="cls-5" points="35.2 86.63 35.2 86.64 33.41 92.75"/><line class="cls-9" x1="47.6" y1="34.56" x2="34.97" y2="30.93"/><polyline class="cls-9" points="44.09 62.89 44.09 62.9 46.6 73.78"/><polyline class="cls-9" points="34.91 17.89 40.35 9.96 48.76 33.34"/><line class="cls-9" x1="48.97" y1="36.87" x2="44.05" y2="59.3"/><line class="cls-9" x1="45.6" y1="76.75" x2="37.13" y2="83.69"/><line class="cls-9" x1="33.91" y1="84.41" x2="25.46" y2="82.24"/><line class="cls-9" x1="33.75" y1="21.26" x2="33.38" y2="28.37"/><line class="cls-9" x1="56.89" y1="59.25" x2="47.98" y2="74"/><line class="cls-9" x1="45.07" y1="91.95" x2="32.72" y2="100.78"/><line class="cls-5" x1="45.3" y1="74.9" x2="30.96" y2="69.22"/><line class="cls-5" x1="27.54" y1="67.86" x2="17.72" y2="63.97"/><line class="cls-5" x1="45.88" y1="92.38" x2="43.84" y2="104.14"/><path class="cls-1" d="M55.17,5.91l-6.74-5A3.16,3.16,0,0,0,44,.87L38.12,4.72a3.18,3.18,0,0,1-2.6.83L33,5.21a3.16,3.16,0,0,0-2.62.86l-9.24,3.1a2.73,2.73,0,0,0-.23.25L5.53,28a3.11,3.11,0,0,0-.69,2.52l.72,4.42a3.07,3.07,0,0,1-.2,1.72L.74,47.71a3.15,3.15,0,0,0,.15,2.73L8.33,63.91a3.18,3.18,0,0,1,.39,1.62l-.29,9.4a3.18,3.18,0,0,0,.94,2.35L14.21,82A3.14,3.14,0,0,1,15.08,85h0a3.14,3.14,0,0,0,.81,2.87L21.57,90a3.17,3.17,0,0,1,.8,2.88L21,98.91a3.15,3.15,0,0,0,2.08,3.69l20.47,6.86a3.13,3.13,0,0,0,3-.54l8.41-6.83a3.18,3.18,0,0,0,1.16-2.45V8.14A3.15,3.15,0,0,0,55.17,5.91Z"/><circle class="cls-5" cx="13.35" cy="6.64" r="1.85"/><circle class="cls-5" cx="2.35" cy="68.39" r="1.85"/><line class="cls-9" x1="27.54" y1="69.23" x2="19.16" y2="73.45"/><polyline class="cls-9" points="2.75 66.99 9.88 49.76 41.91 60.51"/><line class="cls-9" x1="42.01" y1="61.93" x2="30.82" y2="67.58"/></g><line class="cls-5" x1="42.31" y1="107.25" x2="31.99" y2="116.96"/><line class="cls-9" x1="2.74" y1="66.99" x2="9.88" y2="49.76"/><line class="cls-5" x1="34.73" y1="9.19" x2="14.85" y2="6.64"/></g></g></svg>