<svg xmlns="http://www.w3.org/2000/svg" xmlns:xlink="http://www.w3.org/1999/xlink" viewBox="0 0 140.4 138.27"><defs><style>.cls-1{opacity:0.4;}.cls-2{fill:url(#Unbenannter_Verlauf_6);}.cls-3{fill:url(#Unbenannter_Verlauf_6-2);}.cls-4{fill:url(#Unbenannter_Verlauf_6-3);}.cls-13,.cls-5{opacity:0.5;}.cls-6{fill:#699eba;}.cls-7{fill:#fff;}.cls-8{opacity:0.8;}.cls-9{fill:#002b49;}.cls-10,.cls-11,.cls-12{fill:none;stroke-miterlimit:10;}.cls-10,.cls-11{stroke:#fff;}.cls-10{stroke-width:1.39px;}.cls-11{stroke-width:1.38px;}.cls-12{stroke:#fa001f;stroke-linecap:round;}.cls-13{fill:url(#Unbenannter_Verlauf_35);}</style><linearGradient id="Unbenannter_Verlauf_6" x1="55.06" y1="132.97" x2="55.06" y2="22.86" gradientUnits="userSpaceOnUse"><stop offset="0" stop-color="#fff" stop-opacity="0"/><stop offset="0.19" stop-color="#d2e2ea" stop-opacity="0.3"/><stop offset="0.38" stop-color="#accad9" stop-opacity="0.55"/><stop offset="0.56" stop-color="#8fb7cc" stop-opacity="0.75"/><stop offset="0.73" stop-color="#7aa9c2" stop-opacity="0.89"/><stop offset="0.88" stop-color="#6da1bc" stop-opacity="0.97"/><stop offset="1" stop-color="#699eba"/></linearGradient><linearGradient id="Unbenannter_Verlauf_6-2" x1="104.1" y1="138.27" x2="104.1" y2="77.14" xlink:href="#Unbenannter_Verlauf_6"/><linearGradient id="Unbenannter_Verlauf_6-3" x1="116.68" y1="104.68" x2="116.68" y2="57.23" xlink:href="#Unbenannter_Verlauf_6"/><linearGradient id="Unbenannter_Verlauf_35" x1="346.05" y1="-43.48" x2="355.22" y2="-43.48" gradientTransform="translate(400.11 128.86) rotate(-170.51)" gradientUnits="userSpaceOnUse"><stop offset="0" stop-color="#002b49" stop-opacity="0"/><stop offset="0.05" stop-color="#192745" stop-opacity="0.1"/><stop offset="0.19" stop-color="#5d1b39" stop-opacity="0.37"/><stop offset="0.33" stop-color="#951130" stop-opacity="0.6"/><stop offset="0.46" stop-color="#c10a29" stop-opacity="0.77"/><stop offset="0.57" stop-color="#e00423" stop-opacity="0.9"/><stop offset="0.66" stop-color="#f30120" stop-opacity="0.97"/><stop offset="0.73" stop-color="#fa001f"/></linearGradient></defs><title>sample</title><g id="Ebene_2" data-name="Ebene 2"><g id="Ebene_1-2" data-name="Ebene 1"><g class="cls-1"><circle class="cls-2" cx="55.06" cy="77.91" r="55.06"/></g><g class="cls-1"><circle class="cls-3" cx="104.1" cy="107.7" r="30.57"/></g><g class="cls-1"><circle class="cls-4" cx="116.68" cy="80.96" r="23.72"/></g><g id="Rechnung" class="cls-5"><rect class="cls-6" x="20.89" y="9.86" width="69.96" height="99.24" transform="translate(-17.97 24.74) rotate(-21.6)"/><path class="cls-7" d="M69.93.93,106.2,92.54,41.82,118,5.55,26.42,69.93.93m.4-.93L4.62,26,41.41,119l65.72-26L70.33,0Z"/></g><g id="Rechnung-2" data-name="Rechnung" class="cls-8"><rect class="cls-6" x="30.18" y="12.98" width="69.96" height="99.24" transform="translate(-11.61 14.95) rotate(-12.02)"/><path class="cls-7" d="M88.76,7.21l20.52,96.36L41.56,118,21,21.64,88.76,7.21m.55-.85L20.18,21.08,41,118.85l69.13-14.73L89.31,6.36Z"/></g><g id="Rechnung_1" data-name="Rechnung 1"><rect class="cls-9" x="26.24" y="28.63" width="107.91" height="76.07" transform="matrix(0.03, -1, 1, 0.03, 10.96, 144.66)"/><path class="cls-7" d="M44.31,11.9l75.26,2.45-3.48,107.08L40.82,119,44.31,11.9m-.75-.79L40,119.73l76.8,2.5,3.54-108.62-76.81-2.5Z"/><g class="cls-8"><g class="cls-5"><line class="cls-10" x1="53.28" y1="26.81" x2="60.15" y2="27.03"/></g><g class="cls-5"><line class="cls-10" x1="51.24" y1="71.98" x2="58.12" y2="72.2"/></g><g class="cls-5"><line class="cls-10" x1="61.28" y1="72.35" x2="68.15" y2="72.57"/></g><g class="cls-5"><line class="cls-10" x1="68.54" y1="100.54" x2="75.41" y2="100.76"/></g><g class="cls-5"><line class="cls-10" x1="60.75" y1="106.34" x2="67.63" y2="106.56"/></g><g class="cls-5"><line class="cls-10" x1="95.71" y1="101.42" x2="102.58" y2="101.65"/></g><g class="cls-5"><line class="cls-10" x1="50.75" y1="88.68" x2="57.63" y2="88.9"/></g><g class="cls-5"><line class="cls-10" x1="70.75" y1="72.65" x2="77.63" y2="72.88"/></g><g class="cls-5"><line class="cls-10" x1="74.3" y1="89.48" x2="81.18" y2="89.71"/></g><g class="cls-5"><line class="cls-10" x1="80.23" y1="72.96" x2="87.1" y2="73.19"/></g><g class="cls-5"><line class="cls-10" x1="92.49" y1="79.13" x2="99.36" y2="79.35"/></g><g class="cls-5"><line class="cls-10" x1="94.26" y1="73.42" x2="108.11" y2="73.87"/></g><g class="cls-5"><line class="cls-10" x1="93.89" y1="84.94" x2="107.74" y2="85.39"/></g><g class="cls-5"><line class="cls-10" x1="88.88" y1="89.96" x2="102.73" y2="90.41"/></g><g class="cls-5"><line class="cls-10" x1="76.32" y1="78.6" x2="90.17" y2="79.05"/></g><g class="cls-5"><line class="cls-11" x1="53.13" y1="31.41" x2="66.88" y2="31.86"/></g><g class="cls-5"><line class="cls-11" x1="99.21" y1="28.3" x2="109.58" y2="28.64"/></g><g class="cls-5"><line class="cls-11" x1="99.06" y1="32.9" x2="109.43" y2="33.24"/></g><g class="cls-5"><line class="cls-11" x1="98.91" y1="37.5" x2="109.28" y2="37.84"/></g><g class="cls-5"><line class="cls-11" x1="63.63" y1="78.45" x2="73.99" y2="78.79"/></g><g class="cls-5"><line class="cls-11" x1="97.54" y1="107.54" x2="107.91" y2="107.87"/></g><g class="cls-5"><line class="cls-11" x1="84.11" y1="107.1" x2="94.48" y2="107.44"/></g><g class="cls-5"><line class="cls-11" x1="55.52" y1="100.06" x2="65.89" y2="100.4"/></g><g class="cls-5"><line class="cls-11" x1="78.07" y1="100.8" x2="88.44" y2="101.13"/></g><g class="cls-5"><line class="cls-11" x1="70.69" y1="106.66" x2="81.05" y2="107"/></g><g class="cls-5"><line class="cls-11" x1="61.06" y1="89.05" x2="71.43" y2="89.39"/></g><g class="cls-5"><line class="cls-11" x1="50.94" y1="78.04" x2="61.31" y2="78.38"/></g><g class="cls-5"><line class="cls-11" x1="50.77" y1="83.54" x2="61.13" y2="83.88"/></g><g class="cls-5"><line class="cls-11" x1="53.16" y1="36.07" x2="77.71" y2="36.87"/></g><g class="cls-5"><line class="cls-11" x1="63.21" y1="83.95" x2="87.76" y2="84.75"/></g><g class="cls-5"><line class="cls-11" x1="50.98" y1="94.29" x2="75.53" y2="95.08"/></g><g class="cls-5"><line class="cls-11" x1="77.92" y1="95.12" x2="102.47" y2="95.92"/></g><g class="cls-5"><line class="cls-11" x1="53.23" y1="40.65" x2="58.73" y2="40.83"/></g><g class="cls-5"><line class="cls-11" x1="89.7" y1="73.27" x2="91.66" y2="73.33"/></g><g class="cls-5"><line class="cls-11" x1="105.96" y1="79.57" x2="107.92" y2="79.63"/></g><g class="cls-5"><line class="cls-11" x1="101.68" y1="79.43" x2="103.64" y2="79.49"/></g><g class="cls-5"><line class="cls-11" x1="89.84" y1="84.81" x2="91.81" y2="84.87"/></g><g class="cls-5"><line class="cls-11" x1="84.05" y1="89.8" x2="86.01" y2="89.86"/></g><g class="cls-5"><line class="cls-11" x1="105.6" y1="90.5" x2="107.57" y2="90.56"/></g><g class="cls-5"><line class="cls-11" x1="105.42" y1="96.02" x2="107.39" y2="96.08"/></g><g class="cls-5"><line class="cls-11" x1="105.24" y1="101.75" x2="107.2" y2="101.81"/></g><g class="cls-5"><line class="cls-11" x1="50.9" y1="99.98" x2="52.86" y2="100.04"/></g><g class="cls-5"><line class="cls-11" x1="50.7" y1="106.01" x2="52.67" y2="106.08"/></g><g class="cls-5"><line class="cls-11" x1="55.73" y1="106.18" x2="57.69" y2="106.24"/></g><g class="cls-5"><line class="cls-11" x1="91.09" y1="101.29" x2="93.05" y2="101.35"/></g></g></g><circle class="cls-12" cx="47.85" cy="113.12" r="3.83"/><circle class="cls-13" cx="47.11" cy="113.94" r="4.59"/></g></g></svg>