<svg xmlns="http://www.w3.org/2000/svg" width="60" height="60" viewBox="0 0 60 60">
  <g id="Gruppe_2764" data-name="Gruppe 2764" transform="translate(-1151 -249)">
    <g id="Ellipse_581" data-name="Ellipse 581" transform="translate(1151 249)" fill="#fff" stroke="#e40038" stroke-width="2">
      <circle cx="30" cy="30" r="30" stroke="none"/>
      <circle cx="30" cy="30" r="29" fill="none"/>
    </g>
    <g id="Gruppe_181" data-name="Gruppe 181" transform="translate(1156 250)">
      <path id="Pfad_259" data-name="Pfad 259" d="M18.262,18.838l5.465,5.489L21.663,26.4a2.692,2.692,0,0,0,.243,3.9l4.129,4.148a3.152,3.152,0,0,0,2.186.976,2.3,2.3,0,0,0,1.7-.61l2.065-2.074,5.465,5.489-2.915,2.928a4.362,4.362,0,0,1-3.158,1.22,5.818,5.818,0,0,1-4.129-1.83L15.833,29.085c-2.186-2.2-2.308-5.368-.486-7.2l2.915-2.928m0-3.416-1.7,1.708L13.647,20.18A6.971,6.971,0,0,0,11.7,25.547a8.311,8.311,0,0,0,2.429,5.246L25.549,42.26a8.241,8.241,0,0,0,5.83,2.44,6.786,6.786,0,0,0,4.858-1.952l2.915-2.928,1.7-1.708-1.7-1.708-5.465-5.611-1.7-1.708-1.7,1.708-2.065,2.074-.486-.244-4.129-4.148a.733.733,0,0,1-.243-.488l2.065-2.074,1.7-1.708-1.7-1.708-5.465-5.489-1.7-1.708Z" transform="translate(-1 -1)" fill="#e40038"/>
      <path id="Pfad_260" data-name="Pfad 260" d="M24.1,18a8.3,8.3,0,0,1,8.3,8.3" transform="translate(4.153 -1)" fill="none" stroke="#e40038" stroke-width="2"/>
      <path id="Pfad_261" data-name="Pfad 261" d="M27.4,14.7A8.3,8.3,0,0,1,35.7,23" transform="translate(4.153 -1)" fill="none" stroke="#e40038" stroke-width="2"/>
    </g>
  </g>
</svg>
