<svg xmlns="http://www.w3.org/2000/svg" xmlns:xlink="http://www.w3.org/1999/xlink" viewBox="0 0 130.65 128.27"><defs><style>.cls-1{opacity:0.4;}.cls-2{fill:url(#Unbenannter_Verlauf_6);}.cls-3{fill:url(#Unbenannter_Verlauf_6-2);}.cls-4{fill:url(#Unbenannter_Verlauf_6-3);}.cls-5{fill:#002b49;}.cls-6{fill:#fff;}.cls-7{opacity:0.8;}.cls-11,.cls-12,.cls-13,.cls-8{opacity:0.5;}.cls-10,.cls-14,.cls-15,.cls-9{fill:none;stroke-miterlimit:10;}.cls-10,.cls-9{stroke:#fff;}.cls-9{stroke-width:1.39px;}.cls-10{stroke-width:1.38px;}.cls-11{fill:url(#Unbenannter_Verlauf_33);}.cls-12{fill:url(#Unbenannter_Verlauf_35);}.cls-13{fill:url(#Unbenannter_Verlauf_39);}.cls-14,.cls-15{stroke:#fa001f;}.cls-14{stroke-linecap:round;}.cls-15{stroke-width:1.5px;}.cls-16{font-size:14px;fill:#fa001f;font-family:Montserrat-Medium, Montserrat;font-weight:500;}</style><linearGradient id="Unbenannter_Verlauf_6" x1="55.06" y1="116.86" x2="55.06" y2="6.74" gradientUnits="userSpaceOnUse"><stop offset="0" stop-color="#fff" stop-opacity="0"/><stop offset="0.19" stop-color="#d2e2ea" stop-opacity="0.3"/><stop offset="0.38" stop-color="#accad9" stop-opacity="0.55"/><stop offset="0.56" stop-color="#8fb7cc" stop-opacity="0.75"/><stop offset="0.73" stop-color="#7aa9c2" stop-opacity="0.89"/><stop offset="0.88" stop-color="#6da1bc" stop-opacity="0.97"/><stop offset="1" stop-color="#699eba"/></linearGradient><linearGradient id="Unbenannter_Verlauf_6-2" x1="93.88" y1="61.13" x2="93.88" y2="0" xlink:href="#Unbenannter_Verlauf_6"/><linearGradient id="Unbenannter_Verlauf_6-3" x1="106.93" y1="84.95" x2="106.93" y2="37.51" xlink:href="#Unbenannter_Verlauf_6"/><linearGradient id="Unbenannter_Verlauf_33" x1="83.69" y1="53.09" x2="104.84" y2="53.09" gradientUnits="userSpaceOnUse"><stop offset="0" stop-color="#002b49" stop-opacity="0"/><stop offset="0.73" stop-color="#fa001f"/></linearGradient><linearGradient id="Unbenannter_Verlauf_35" x1="26.38" y1="53.87" x2="47.52" y2="53.87" gradientTransform="translate(64.52 113.09) rotate(-170.51)" gradientUnits="userSpaceOnUse"><stop offset="0" stop-color="#002b49" stop-opacity="0"/><stop offset="0.05" stop-color="#192745" stop-opacity="0.1"/><stop offset="0.19" stop-color="#5d1b39" stop-opacity="0.37"/><stop offset="0.33" stop-color="#951130" stop-opacity="0.6"/><stop offset="0.46" stop-color="#c10a29" stop-opacity="0.77"/><stop offset="0.57" stop-color="#e00423" stop-opacity="0.9"/><stop offset="0.66" stop-color="#f30120" stop-opacity="0.97"/><stop offset="0.73" stop-color="#fa001f"/></linearGradient><linearGradient id="Unbenannter_Verlauf_39" x1="-22.29" y1="31.83" x2="-1.14" y2="31.83" gradientTransform="matrix(-0.82, -0.57, 0.57, -0.82, 17.1, 126.09)" xlink:href="#Unbenannter_Verlauf_33"/></defs><title>advanced_1</title><g id="Ebene_2" data-name="Ebene 2"><g id="Ebene_1-2" data-name="Ebene 1"><g class="cls-1"><circle class="cls-2" cx="55.06" cy="61.8" r="55.06"/></g><g class="cls-1"><circle class="cls-3" cx="93.88" cy="30.57" r="30.57"/></g><g class="cls-1"><circle class="cls-4" cx="106.93" cy="61.23" r="23.72"/></g><g id="Rechnung_1" data-name="Rechnung 1"><rect class="cls-5" x="16.49" y="34.67" width="107.91" height="76.08" transform="translate(-4.51 140.76) rotate(-88.14)"/><path class="cls-6" d="M34.55,17.94l75.27,2.45-3.48,107.09L31.07,125,34.55,17.94m-.74-.79L30.28,125.77l76.8,2.5,3.53-108.62-76.8-2.5Z"/><g class="cls-7"><g class="cls-8"><line class="cls-9" x1="43.52" y1="32.85" x2="50.4" y2="33.07"/></g><g class="cls-8"><line class="cls-9" x1="41.49" y1="78.02" x2="48.36" y2="78.25"/></g><g class="cls-8"><line class="cls-9" x1="51.53" y1="78.39" x2="58.4" y2="78.61"/></g><g class="cls-8"><line class="cls-9" x1="58.79" y1="106.58" x2="65.66" y2="106.8"/></g><g class="cls-8"><line class="cls-9" x1="51" y1="112.38" x2="57.87" y2="112.6"/></g><g class="cls-8"><line class="cls-9" x1="85.96" y1="107.46" x2="92.83" y2="107.69"/></g><g class="cls-8"><line class="cls-9" x1="41" y1="94.72" x2="47.88" y2="94.94"/></g><g class="cls-8"><line class="cls-9" x1="61" y1="78.7" x2="67.87" y2="78.92"/></g><g class="cls-8"><line class="cls-9" x1="64.55" y1="95.52" x2="71.42" y2="95.75"/></g><g class="cls-8"><line class="cls-9" x1="70.47" y1="79" x2="77.35" y2="79.23"/></g><g class="cls-8"><line class="cls-9" x1="82.73" y1="85.17" x2="89.61" y2="85.39"/></g><g class="cls-8"><line class="cls-9" x1="84.51" y1="79.46" x2="98.36" y2="79.91"/></g><g class="cls-8"><line class="cls-9" x1="84.14" y1="90.99" x2="97.98" y2="91.44"/></g><g class="cls-8"><line class="cls-9" x1="79.13" y1="96" x2="92.98" y2="96.45"/></g><g class="cls-8"><line class="cls-9" x1="66.57" y1="84.65" x2="80.42" y2="85.1"/></g><g class="cls-8"><line class="cls-10" x1="43.37" y1="37.45" x2="57.12" y2="37.9"/></g><g class="cls-8"><line class="cls-10" x1="89.46" y1="34.34" x2="99.83" y2="34.68"/></g><g class="cls-8"><line class="cls-10" x1="89.31" y1="38.94" x2="99.68" y2="39.28"/></g><g class="cls-8"><line class="cls-10" x1="89.16" y1="43.54" x2="99.53" y2="43.88"/></g><g class="cls-8"><line class="cls-10" x1="53.88" y1="84.5" x2="64.24" y2="84.83"/></g><g class="cls-8"><line class="cls-10" x1="87.79" y1="113.58" x2="98.16" y2="113.91"/></g><g class="cls-8"><line class="cls-10" x1="74.36" y1="113.14" x2="84.73" y2="113.48"/></g><g class="cls-8"><line class="cls-10" x1="45.77" y1="106.1" x2="56.13" y2="106.44"/></g><g class="cls-8"><line class="cls-10" x1="68.32" y1="106.84" x2="78.68" y2="107.17"/></g><g class="cls-8"><line class="cls-10" x1="60.93" y1="112.7" x2="71.3" y2="113.04"/></g><g class="cls-8"><line class="cls-10" x1="51.31" y1="95.09" x2="61.68" y2="95.43"/></g><g class="cls-8"><line class="cls-10" x1="41.19" y1="84.08" x2="51.56" y2="84.42"/></g><g class="cls-8"><line class="cls-10" x1="41.01" y1="89.58" x2="51.38" y2="89.92"/></g><g class="cls-8"><line class="cls-10" x1="43.41" y1="42.11" x2="67.96" y2="42.91"/></g><g class="cls-8"><line class="cls-10" x1="53.46" y1="89.99" x2="78.01" y2="90.79"/></g><g class="cls-8"><line class="cls-10" x1="41.23" y1="100.33" x2="65.78" y2="101.12"/></g><g class="cls-8"><line class="cls-10" x1="68.17" y1="101.16" x2="92.72" y2="101.96"/></g><g class="cls-8"><line class="cls-10" x1="43.48" y1="46.69" x2="48.98" y2="46.87"/></g><g class="cls-8"><line class="cls-10" x1="79.95" y1="79.31" x2="81.91" y2="79.38"/></g><g class="cls-8"><line class="cls-10" x1="96.21" y1="85.61" x2="98.17" y2="85.67"/></g><g class="cls-8"><line class="cls-10" x1="91.92" y1="85.47" x2="93.89" y2="85.53"/></g><g class="cls-8"><line class="cls-10" x1="80.09" y1="90.85" x2="82.06" y2="90.91"/></g><g class="cls-8"><line class="cls-10" x1="74.3" y1="95.84" x2="76.26" y2="95.9"/></g><g class="cls-8"><line class="cls-10" x1="95.85" y1="96.54" x2="97.81" y2="96.6"/></g><g class="cls-8"><line class="cls-10" x1="95.67" y1="102.06" x2="97.64" y2="102.12"/></g><g class="cls-8"><line class="cls-10" x1="95.49" y1="107.79" x2="97.45" y2="107.85"/></g><g class="cls-8"><line class="cls-10" x1="41.15" y1="106.02" x2="43.11" y2="106.08"/></g><g class="cls-8"><line class="cls-10" x1="40.95" y1="112.05" x2="42.91" y2="112.12"/></g><g class="cls-8"><line class="cls-10" x1="45.97" y1="112.22" x2="47.94" y2="112.28"/></g><g class="cls-8"><line class="cls-10" x1="81.34" y1="107.33" x2="83.3" y2="107.39"/></g></g></g><circle class="cls-11" cx="94.27" cy="53.09" r="10.57"/><circle class="cls-12" cx="36.95" cy="53.87" r="10.57"/><circle class="cls-13" cx="44.93" cy="106.69" r="10.57"/><circle class="cls-14" cx="94.89" cy="52.02" r="9.68"/><circle class="cls-14" cx="33.9" cy="52.97" r="9.68"/><circle class="cls-14" cx="46.2" cy="104.51" r="9.68"/><polyline class="cls-15" points="28.73 51.83 32.99 56.09 39.22 49.85"/><line class="cls-15" x1="90.26" y1="47.39" x2="99.52" y2="56.65"/><line class="cls-15" x1="90.26" y1="56.65" x2="99.52" y2="47.39"/><text class="cls-16" transform="translate(42.15 109.24)">?</text><text class="cls-16" transform="translate(42.15 109.24)">?</text></g></g></svg>