<svg xmlns="http://www.w3.org/2000/svg" xmlns:xlink="http://www.w3.org/1999/xlink" width="89" height="89" viewBox="0 0 89 89">
  <defs>
    <linearGradient id="linear-gradient" x1="0.5" x2="0.5" y2="1" gradientUnits="objectBoundingBox">
      <stop offset="0" stop-color="#e40038"/>
      <stop offset="1" stop-color="#72001c" stop-opacity="0"/>
    </linearGradient>
  </defs>
  <g id="Gruppe_1825" data-name="Gruppe 1825" transform="translate(-1263 -705)">
    <circle id="Ellipse_345" data-name="Ellipse 345" cx="41.5" cy="41.5" r="41.5" transform="translate(1269 711)" opacity="0.4" fill="url(#linear-gradient)"/>
    <g id="Ellipse_335" data-name="Ellipse 335" transform="translate(1263 705)" fill="none" stroke="#e40038" stroke-width="1">
      <circle cx="42.5" cy="42.5" r="42.5" stroke="none"/>
      <circle cx="42.5" cy="42.5" r="42" fill="none"/>
    </g>
    <g id="Gruppe_1741" data-name="Gruppe 1741" transform="translate(1267.91 733.367) rotate(-31)">
      <rect id="Rechteck_316" data-name="Rechteck 316" width="10.533" height="25.038" rx="0.65" transform="translate(5.177 22.851)" fill="none" stroke="#e40038" stroke-linecap="round" stroke-miterlimit="10" stroke-width="1"/>
      <circle id="Ellipse_336" data-name="Ellipse 336" cx="1.209" cy="1.209" r="1.209" transform="translate(9.235 40.551)" fill="#e40038"/>
      <path id="Pfad_733" data-name="Pfad 733" d="M10.237,21.668s9.636-3.262,11.052-11.5a2.208,2.208,0,0,1,2.844-1.794,4.3,4.3,0,0,1,2.854,3.106C28.046,15.308,25,22.1,25,22.1" transform="translate(5.473 4.551)" fill="none" stroke="#e40038" stroke-linejoin="round" stroke-width="1"/>
      <line id="Linie_1405" data-name="Linie 1405" x2="11.539" transform="translate(26.907 26.219)" fill="none" stroke="#e40038" stroke-linecap="round" stroke-miterlimit="10" stroke-width="1"/>
      <path id="Pfad_734" data-name="Pfad 734" d="M20.819,14.7h2.307a2.689,2.689,0,0,1,2.688,2.69h0a2.688,2.688,0,0,1-2.688,2.688H20.819" transform="translate(16.92 11.514)" fill="none" stroke="#e40038" stroke-linecap="round" stroke-miterlimit="10" stroke-width="1"/>
      <path id="Pfad_735" data-name="Pfad 735" d="M21.1,17.279h2.307a2.689,2.689,0,0,1,2.69,2.688h0a2.69,2.69,0,0,1-2.69,2.69H21.1" transform="translate(17.226 14.307)" fill="none" stroke="#e40038" stroke-linecap="round" stroke-miterlimit="10" stroke-width="1"/>
      <path id="Pfad_736" data-name="Pfad 736" d="M20.535,19.86h2.307a2.688,2.688,0,0,1,2.69,2.688h0a2.688,2.688,0,0,1-2.69,2.69H20.535" transform="translate(16.613 17.099)" fill="none" stroke="#e40038" stroke-linecap="round" stroke-miterlimit="10" stroke-width="1"/>
      <path id="Pfad_737" data-name="Pfad 737" d="M19.773,22.441H22.08a2.688,2.688,0,0,1,2.688,2.69h0a2.688,2.688,0,0,1-2.688,2.688H19.773" transform="translate(15.789 19.891)" fill="none" stroke="#e40038" stroke-linecap="round" stroke-miterlimit="10" stroke-width="1"/>
      <path id="Pfad_738" data-name="Pfad 738" d="M10.361,23.2l6.545,3.079a7.545,7.545,0,0,0,3.21.718H30.864" transform="translate(5.607 20.712)" fill="none" stroke="#e40038" stroke-linecap="round" stroke-linejoin="round" stroke-width="1"/>
      <g id="Gruppe_1740" data-name="Gruppe 1740" transform="translate(16.833 4.053)">
        <line id="Linie_1406" data-name="Linie 1406" x2="2.59" y2="3.322" transform="translate(0 2.415)" fill="none" stroke="#e40038" stroke-linecap="round" stroke-linejoin="round" stroke-width="1"/>
        <line id="Linie_1407" data-name="Linie 1407" x1="2.285" y2="3.522" transform="translate(19.176 2.347)" fill="none" stroke="#e40038" stroke-linecap="round" stroke-linejoin="round" stroke-width="1"/>
        <line id="Linie_1408" data-name="Linie 1408" y2="4" transform="translate(10.883)" fill="none" stroke="#e40038" stroke-linecap="round" stroke-linejoin="round" stroke-width="1"/>
      </g>
    </g>
  </g>
</svg>
