<svg xmlns="http://www.w3.org/2000/svg" xmlns:xlink="http://www.w3.org/1999/xlink" width="60" height="60" viewBox="0 0 60 60">
  <defs>
    <linearGradient id="linear-gradient" x1="0.5" x2="0.5" y2="1" gradientUnits="objectBoundingBox">
      <stop offset="0" stop-color="#699eba"/>
      <stop offset="1" stop-color="#354f5d" stop-opacity="0"/>
    </linearGradient>
  </defs>
  <g id="Gruppe_1823" data-name="Gruppe 1823" transform="translate(-1276 -355)">
    <g id="Gruppe_1733" data-name="Gruppe 1733" transform="translate(72 -97)">
      <g id="Ellipse_329" data-name="Ellipse 329" transform="translate(1204 452)" fill="none" stroke="#699eba" stroke-width="1">
        <circle cx="30" cy="30" r="30" stroke="none"/>
        <circle cx="30" cy="30" r="29.5" fill="none"/>
      </g>
      <g id="Gruppe_1725" data-name="Gruppe 1725" transform="translate(-1)">
        <path id="Pfad_725" data-name="Pfad 725" d="M36.33,16.784C20.548,5.346,12.961,12.538,5.168,17.5c-1.37.873-3.433,2.248-2.819,4,.472,1.347,2.59,1.295,3.555,1.145a1.4,1.4,0,0,1,1.193.4c3.035,2.921,6.942,5.58,11.5,6.249,6.555.963,13.005-2.4,17.237-5.368" transform="translate(1215.282 464.548)" fill="none" stroke="#699eba" stroke-linecap="round" stroke-miterlimit="10" stroke-width="1"/>
        <path id="Pfad_726" data-name="Pfad 726" d="M9.122,9.267s10.958-6.2,23.91,3.839" transform="translate(1218.151 463.177)" fill="none" stroke="#699eba" stroke-linecap="round" stroke-miterlimit="10" stroke-width="1"/>
        <path id="Pfad_727" data-name="Pfad 727" d="M11.79,19.727a7.616,7.616,0,0,1-.326-3.5,7.49,7.49,0,0,1,3.768-5.469" transform="translate(1219.096 464.588)" fill="none" stroke="#699eba" stroke-linecap="round" stroke-linejoin="round" stroke-width="1"/>
        <path id="Pfad_728" data-name="Pfad 728" d="M12.372,18.627c-.133-.205-.078-.047-.19-.265" transform="translate(1219.426 467.756)" fill="none" stroke="#699eba" stroke-linecap="round" stroke-linejoin="round" stroke-width="1"/>
        <path id="Pfad_729" data-name="Pfad 729" d="M23.565,11.8a7.652,7.652,0,0,1,1.6,2.741,1.058,1.058,0,0,0-.191-.058,2.819,2.819,0,0,0-.819,5.579,2.609,2.609,0,0,0,.673,0A7.5,7.5,0,0,1,13.5,22.888" transform="translate(1219.975 465.021)" fill="none" stroke="#699eba" stroke-linecap="round" stroke-linejoin="round" stroke-width="1"/>
      </g>
    </g>
    <circle id="Ellipse_339" data-name="Ellipse 339" cx="27" cy="27" r="27" transform="translate(1282 356)" opacity="0.15" fill="url(#linear-gradient)"/>
  </g>
</svg>
