<svg xmlns="http://www.w3.org/2000/svg" xmlns:xlink="http://www.w3.org/1999/xlink" width="93" height="77.678" viewBox="0 0 93 77.678">
  <defs>
    <linearGradient id="linear-gradient" x1="0.5" y1="0.18" x2="0.5" y2="1.489" gradientUnits="objectBoundingBox">
      <stop offset="0" stop-color="#b4cedc"/>
      <stop offset="1" stop-color="#fff" stop-opacity="0"/>
    </linearGradient>
    <linearGradient id="linear-gradient-2" y1="0.202" y2="1" xlink:href="#linear-gradient"/>
    <linearGradient id="linear-gradient-3" y1="0.186" y2="1" xlink:href="#linear-gradient"/>
  </defs>
  <g id="Gruppe_1751" data-name="Gruppe 1751" transform="translate(0 1)">
    <circle id="Ellipse_320" data-name="Ellipse 320" cx="25" cy="25" r="25" transform="translate(33 4.678)" opacity="0.4" fill="url(#linear-gradient)"/>
    <circle id="Ellipse_321" data-name="Ellipse 321" cx="10" cy="10" r="10" transform="translate(73 23.678)" opacity="0.3" fill="url(#linear-gradient-2)"/>
    <circle id="Ellipse_322" data-name="Ellipse 322" cx="31" cy="31" r="31" transform="translate(0 14.678)" opacity="0.4" fill="url(#linear-gradient-3)"/>
    <g id="Gruppe_1692" data-name="Gruppe 1692" transform="translate(24.344 0)">
      <path id="Pfad_713" data-name="Pfad 713" d="M44.97,49.036v9.639H1.565V.559H44.97V28.99" transform="translate(-1.565 -0.559)" fill="none" stroke="#002b49" stroke-miterlimit="10" stroke-width="2"/>
      <line id="Linie_1385" data-name="Linie 1385" x2="28.259" transform="translate(7.881 16.177)" fill="none" stroke="#002b49" stroke-linejoin="round" stroke-width="2"/>
      <line id="Linie_1386" data-name="Linie 1386" x2="22.953" transform="translate(7.881 24.207)" fill="none" stroke="#002b49" stroke-linejoin="round" stroke-width="2"/>
      <line id="Linie_1387" data-name="Linie 1387" x2="15.444" transform="translate(7.881 32.236)" fill="none" stroke="#002b49" stroke-linejoin="round" stroke-width="2"/>
      <line id="Linie_1388" data-name="Linie 1388" x2="12.365" transform="translate(7.881 40.266)" fill="none" stroke="#002b49" stroke-linejoin="round" stroke-width="2"/>
      <g id="Gruppe_1691" data-name="Gruppe 1691" transform="translate(22.672 23.723)">
        <path id="Pfad_714" data-name="Pfad 714" d="M33.518,17.007a11.339,11.339,0,0,0-5.759-4.163,11.549,11.549,0,0,0-1.7-.4,10.861,10.861,0,0,0-1.819-.141,11.287,11.287,0,1,0,0,22.571A10.144,10.144,0,0,0,25.6,34.79c.283-.02.566-.081.849-.121a11.417,11.417,0,0,0,7.073-4.486,11.18,11.18,0,0,0,2.162-6.588A11,11,0,0,0,33.518,17.007ZM26.364,30.546,26,30.667a8.369,8.369,0,0,1-1.758.2,7.286,7.286,0,1,1,0-14.569,7.417,7.417,0,0,1,1.9.242,7.861,7.861,0,0,1,1.212.445,7.238,7.238,0,0,1-.99,13.559Z" transform="translate(-12.785 -12.299)" fill="none" stroke="#002b49" stroke-miterlimit="10" stroke-width="2"/>
        <path id="Pfad_715" data-name="Pfad 715" d="M25.235,20.921,37.143,32.659a2.676,2.676,0,0,1,0,3.829,2.769,2.769,0,0,1-3.882,0L21.228,24.625" transform="translate(-4.167 -3.498)" fill="none" stroke="#002b49" stroke-miterlimit="10" stroke-width="2"/>
      </g>
    </g>
  </g>
</svg>
