<svg xmlns="http://www.w3.org/2000/svg" width="29" height="29.317" viewBox="0 0 29 29.317">
  <g id="Gruppe_1474" data-name="Gruppe 1474" transform="translate(-0.5 -0.257)">
    <rect id="Rechteck_307" data-name="Rechteck 307" width="28" height="14" rx="2" transform="translate(1 15.074)" fill="none" stroke="#002b49" stroke-miterlimit="10" stroke-width="1"/>
    <path id="Rechteck_308" data-name="Rechteck 308" d="M6.068,0h0a6.068,6.068,0,0,1,6.068,6.068V14a0,0,0,0,1,0,0H0a0,0,0,0,1,0,0V6.068A6.068,6.068,0,0,1,6.068,0Z" transform="translate(8.932 0.757)" fill="none" stroke="#002b49" stroke-miterlimit="10" stroke-width="1"/>
    <path id="Pfad_384" data-name="Pfad 384" d="M12.932,14.757V6.824a2.067,2.067,0,0,1,4.135,0v7.933Z" fill="none" stroke="#002b49" stroke-miterlimit="10" stroke-width="1"/>
    <circle id="Ellipse_309" data-name="Ellipse 309" cx="2.067" cy="2.067" r="2.067" transform="translate(12.933 18.577)" fill="#002b49"/>
    <rect id="Rechteck_309" data-name="Rechteck 309" width="2" height="6.38" rx="1" transform="translate(14 19.723)" fill="#002b49"/>
  </g>
</svg>
