<svg xmlns="http://www.w3.org/2000/svg" width="29.852" height="28.263" viewBox="0 0 29.852 28.263">
  <g id="Gruppe_1744" data-name="Gruppe 1744" transform="translate(-0.227 -1.053)">
    <path id="Pfad_740" data-name="Pfad 740" d="M29.578,28.816,25.7,21.351a13.37,13.37,0,1,0-4.444,4.732Z" fill="none" stroke="#002b49" stroke-linejoin="round" stroke-width="1"/>
    <g id="Gruppe_1743" data-name="Gruppe 1743" transform="translate(1)">
      <path id="Pfad_741" data-name="Pfad 741" d="M12.991,10.44a.786.786,0,0,1-.24-.576.768.768,0,0,1,.24-.56.8.8,0,0,1,.592-.24.816.816,0,0,1,.591.232.74.74,0,0,1,.241.552.837.837,0,0,1-1.424.592Zm.016,2.08h1.135v8.416H13.007Z" fill="#002b49"/>
    </g>
  </g>
</svg>
