<svg xmlns="http://www.w3.org/2000/svg" xmlns:xlink="http://www.w3.org/1999/xlink" width="64" height="60" viewBox="0 0 64 60">
  <defs>
    <linearGradient id="linear-gradient" x1="0.5" x2="0.5" y2="1" gradientUnits="objectBoundingBox">
      <stop offset="0" stop-color="#699eba"/>
      <stop offset="1" stop-color="#354f5d" stop-opacity="0"/>
    </linearGradient>
  </defs>
  <g id="Gruppe_1817" data-name="Gruppe 1817" transform="translate(-285 -355)">
    <g id="Ellipse_328" data-name="Ellipse 328" transform="translate(289 355)" fill="none" stroke="#699eba" stroke-width="1">
      <circle cx="30" cy="30" r="30" stroke="none"/>
      <circle cx="30" cy="30" r="29.5" fill="none"/>
    </g>
    <path id="Pfad_721" data-name="Pfad 721" d="M17.912,20.626l4.577-.008c4.142,0,7.89-2.789,6.829-7.31A4.31,4.31,0,0,0,24.746,10a4.162,4.162,0,0,0-1.494.28,8.213,8.213,0,0,0-7.909-6.789A8.033,8.033,0,0,0,8.2,8.033a6.72,6.72,0,0,0-7.7,6.173L.5,14.985a5.66,5.66,0,0,0,5.66,5.66l5.779-.009" transform="translate(304.5 369.512)" fill="none" stroke="#699eba" stroke-miterlimit="10" stroke-width="1"/>
    <path id="Pfad_722" data-name="Pfad 722" d="M8.2,8.033A6.541,6.541,0,0,1,11.293,9.45" transform="translate(304.5 369.512)" fill="none" stroke="#699eba" stroke-linecap="round" stroke-miterlimit="10" stroke-width="1"/>
    <path id="Pfad_723" data-name="Pfad 723" d="M23.252,10.277a3.763,3.763,0,0,0-2.026,1.753" transform="translate(304.5 369.512)" fill="none" stroke="#699eba" stroke-linecap="round" stroke-miterlimit="10" stroke-width="1"/>
    <line id="Linie_1404" data-name="Linie 1404" y2="14.068" transform="translate(319.49 382.469)" fill="#eef3f7" stroke="#699eba" stroke-miterlimit="10" stroke-width="1"/>
    <path id="Pfad_724" data-name="Pfad 724" d="M11.6,16.384l3.393-3.393,3.393,3.393" transform="translate(304.5 369.512)" fill="none" stroke="#699eba" stroke-linecap="round" stroke-linejoin="round" stroke-width="1"/>
    <circle id="Ellipse_337" data-name="Ellipse 337" cx="27" cy="27" r="27" transform="translate(285 355)" opacity="0.15" fill="url(#linear-gradient)"/>
  </g>
</svg>
