<svg xmlns="http://www.w3.org/2000/svg" xmlns:xlink="http://www.w3.org/1999/xlink" viewBox="0 0 135.85 133.22"><defs><style>.cls-1,.cls-7,.cls-8{opacity:0.4;}.cls-2{fill:url(#Unbenannter_Verlauf_6);}.cls-3{fill:url(#Unbenannter_Verlauf_6-2);}.cls-10,.cls-11,.cls-12,.cls-4{fill:none;}.cls-11,.cls-12,.cls-4{stroke:#fa001f;}.cls-10,.cls-12,.cls-4,.cls-6,.cls-9{stroke-linecap:round;}.cls-10,.cls-4,.cls-6{stroke-linejoin:round;}.cls-5{fill:url(#Unbenannter_Verlauf_6-3);}.cls-6,.cls-9{fill:#002b49;}.cls-10,.cls-6,.cls-9{stroke:#fff;}.cls-7{fill:url(#Unbenannter_Verlauf_11);}.cls-8{fill:url(#Unbenannter_Verlauf_13);}.cls-11,.cls-12,.cls-9{stroke-miterlimit:10;}.cls-13{fill:#fa001f;}</style><linearGradient id="Unbenannter_Verlauf_6" x1="55.06" y1="123.04" x2="55.06" y2="12.93" gradientUnits="userSpaceOnUse"><stop offset="0" stop-color="#fff" stop-opacity="0"/><stop offset="0.19" stop-color="#d2e2ea" stop-opacity="0.3"/><stop offset="0.38" stop-color="#accad9" stop-opacity="0.55"/><stop offset="0.56" stop-color="#8fb7cc" stop-opacity="0.75"/><stop offset="0.73" stop-color="#7aa9c2" stop-opacity="0.89"/><stop offset="0.88" stop-color="#6da1bc" stop-opacity="0.97"/><stop offset="1" stop-color="#699eba"/></linearGradient><linearGradient id="Unbenannter_Verlauf_6-2" x1="21.59" y1="132.55" x2="21.59" y2="91.83" xlink:href="#Unbenannter_Verlauf_6"/><linearGradient id="Unbenannter_Verlauf_6-3" x1="102" y1="103.2" x2="102" y2="35.5" xlink:href="#Unbenannter_Verlauf_6"/><linearGradient id="Unbenannter_Verlauf_11" x1="75.68" y1="10.33" x2="65.4" y2="13.69" gradientUnits="userSpaceOnUse"><stop offset="0" stop-color="#fff" stop-opacity="0"/><stop offset="0.67" stop-color="#fa001f"/></linearGradient><linearGradient id="Unbenannter_Verlauf_13" x1="322.07" y1="168.92" x2="290.79" y2="171.27" gradientTransform="translate(-280.64 -69.69) scale(0.99 0.82)" gradientUnits="userSpaceOnUse"><stop offset="0" stop-color="#fff" stop-opacity="0"/><stop offset="0.73" stop-color="#fa001f"/></linearGradient></defs><title>Kontakt</title><g id="Ebene_2" data-name="Ebene 2"><g id="Ebene_1-2" data-name="Ebene 1"><g class="cls-1"><circle class="cls-2" cx="55.06" cy="67.98" r="55.06"/></g><g class="cls-1"><circle class="cls-3" cx="21.59" cy="112.19" r="20.36"/></g><path class="cls-4" d="M71.42,16.48s26,3.9,24.75,16.47S59.73,62,77.78,74.86c10,7.08,38.42-12.86,47.77-6.31,3.2,2.25.11,7.33-3.32,5.45-2.6-1.43-2.24-6.26,0-10.87a10.64,10.64,0,0,1,6.26-5.75"/><g class="cls-1"><circle class="cls-5" cx="102" cy="69.35" r="33.85"/></g><path class="cls-6" d="M88.86,25.77l-17-20.21a1.93,1.93,0,0,0-.31-.27A1.84,1.84,0,0,0,69,7.89l2,2.82L71.9,12l7.23,10.88-9.22-5.52c-2.25-1.57-6.82-1.18-6.82-1.18l-2,.22L58.91,6.71a4,4,0,0,0-5-2.92L50,5a4,4,0,0,0-2.53,5.21l2.3,6.07s-7,.84-9.83,1.46c-3.66.8-5.25,1.39-6.85,3.13L13.36,42.34a3,3,0,0,0-.28,3.74L23.17,60.94a.68.68,0,0,0,1.21-.56L20.27,45.56A1.93,1.93,0,0,1,21,43.48l13.54-9.66a.39.39,0,0,1,.6.36L31.72,63A50.46,50.46,0,0,0,32,73.27l4.24,25.21,1.5,31.36a1.85,1.85,0,0,0,1.67,1.79A1.77,1.77,0,0,0,41.21,130l5.61-56.65a1,1,0,0,1,1.84-.27l8.71,26.59a15.08,15.08,0,0,1,1.1,4.68l1.87,26.35a2.08,2.08,0,0,0,2,2,2,2,0,0,0,2-1.77l2.27-28.4a18.37,18.37,0,0,0-.1-3.85L62.33,61.31a20.7,20.7,0,0,1,.42-6.93l5.83-24.84a1.16,1.16,0,0,1,1.36-.88l15,3A3.78,3.78,0,0,0,88.86,25.77Z"/><path class="cls-7" d="M72,3.88a6,6,0,0,0-4.14-2L66.64,1.8a1.55,1.55,0,0,0-1.14.39A1.57,1.57,0,0,0,65,3.28l-.21,3.4a1.58,1.58,0,0,0,1.48,1.66l1.55.09a1.42,1.42,0,0,1,1.33,1.5l-.4,6.71A1.43,1.43,0,0,1,67.23,18l-1.54-.09a1.55,1.55,0,0,0-1.14.39A1.56,1.56,0,0,0,64,19.36l-.13,2.27-.06,1.12a1.56,1.56,0,0,0,1.47,1.66l1.24.08a6,6,0,0,0,6.35-5.64l.23-3.79.39-7A5.93,5.93,0,0,0,72,3.88Z"/><rect class="cls-8" x="8.28" y="60.62" width="30.06" height="17.54" rx="2.61" transform="translate(70.53 125.32) rotate(158.39)"/><line class="cls-9" x1="79.13" y1="22.87" x2="81.75" y2="27.38"/><path class="cls-10" d="M51.34,20.17l-3.88-10A4,4,0,0,1,50,5l3.92-1.18a4,4,0,0,1,5,2.92l2.32,10.46a4,4,0,0,1-2.71,4.63"/><path class="cls-11" d="M20.83,58.42l-11.38,4a1.92,1.92,0,0,0-1.14,1A2,2,0,0,0,8.21,65l4.26,12.29A2,2,0,0,0,15,78.47L33,72.25l4.74-1.64a2,2,0,0,0,1.24-2.54L34.67,55.79a1.91,1.91,0,0,0-1-1.15l-.13-.06a2,2,0,0,0-1.39,0l-8,2.83"/><path class="cls-11" d="M8.31,63.42,21.82,67a3.46,3.46,0,0,0,3.53-1.13l8.3-11.25"/><line class="cls-12" x1="19.55" y1="66.49" x2="16.28" y2="73.23"/><line class="cls-12" x1="26.71" y1="64.01" x2="33.46" y2="67.28"/><path class="cls-13" d="M70.88,16.29a4.93,4.93,0,0,1-4,4.56,4.39,4.39,0,0,1-.72.07H66l.12-2,.15-2.55h.12a2.2,2.2,0,0,0,2.19-2.07L69,7.79A2.19,2.19,0,0,0,67,5.54l-.11,0V5.4L67.18.94l.13,0a4.86,4.86,0,0,1,4.12,4.35l.88.67A5.73,5.73,0,0,0,66.91.07L65.72,0a1.5,1.5,0,0,0-1.59,1.42l-.2,3.26a1.52,1.52,0,0,0,1.42,1.59l1.48.09A1.36,1.36,0,0,1,68.11,7.8l-.38,6.42a1.37,1.37,0,0,1-1.44,1.28l-1.48-.08a1.45,1.45,0,0,0-.36,0,1.5,1.5,0,0,0-1.24,1.39L63.09,19,63,20.09a1.51,1.51,0,0,0,.37,1.09,1.5,1.5,0,0,0,1,.5l1.18.08a5.8,5.8,0,0,0,6.1-5.42l.21-3.63-.76-1.37ZM66.07,5.48l-.67,0a.68.68,0,0,1-.46-.23.65.65,0,0,1-.17-.48L65,1.47A.67.67,0,0,1,65.19,1a.66.66,0,0,1,.48-.17l.67,0Zm-.8,13.36-.12,2.05-.66-.05a.67.67,0,0,1-.63-.7l.07-1.22.12-2a.67.67,0,0,1,.22-.46.69.69,0,0,1,.49-.17l.67,0Z"/></g></g></svg>