<svg xmlns="http://www.w3.org/2000/svg" xmlns:xlink="http://www.w3.org/1999/xlink" viewBox="0 0 95.66 109.76"><defs><style>.cls-1,.cls-5,.cls-6{opacity:0.4;}.cls-2{fill:url(#Unbenannter_Verlauf_6);}.cls-3{fill:url(#Unbenannter_Verlauf_6-2);}.cls-4{fill:url(#Unbenannter_Verlauf_6-3);}.cls-5{fill:url(#Unbenannter_Verlauf_18);}.cls-6{fill:url(#Unbenannter_Verlauf_20);}.cls-7{fill:none;stroke:#fa001f;stroke-linecap:round;stroke-linejoin:round;}.cls-8{fill:#002b49;}</style><linearGradient id="Unbenannter_Verlauf_6" x1="39.87" y1="84.27" x2="39.87" y2="12.61" gradientUnits="userSpaceOnUse"><stop offset="0" stop-color="#fff" stop-opacity="0"/><stop offset="0.19" stop-color="#d2e2ea" stop-opacity="0.3"/><stop offset="0.38" stop-color="#accad9" stop-opacity="0.55"/><stop offset="0.56" stop-color="#8fb7cc" stop-opacity="0.75"/><stop offset="0.73" stop-color="#7aa9c2" stop-opacity="0.89"/><stop offset="0.88" stop-color="#6da1bc" stop-opacity="0.97"/><stop offset="1" stop-color="#699eba"/></linearGradient><linearGradient id="Unbenannter_Verlauf_6-2" x1="25.4" y1="97.78" x2="25.4" y2="46.98" xlink:href="#Unbenannter_Verlauf_6"/><linearGradient id="Unbenannter_Verlauf_6-3" x1="78.33" y1="50.68" x2="78.33" y2="16.03" xlink:href="#Unbenannter_Verlauf_6"/><linearGradient id="Unbenannter_Verlauf_18" x1="39.29" y1="23.42" x2="74.15" y2="-11.44" gradientUnits="userSpaceOnUse"><stop offset="0" stop-color="#fff" stop-opacity="0"/><stop offset="0.73" stop-color="#fa001f"/></linearGradient><linearGradient id="Unbenannter_Verlauf_20" x1="39.29" y1="121.2" x2="74.15" y2="86.34" xlink:href="#Unbenannter_Verlauf_18"/></defs><title>upload</title><g id="Ebene_2" data-name="Ebene 2"><g id="Ebene_1-2" data-name="Ebene 1"><g class="cls-1"><circle class="cls-2" cx="39.87" cy="48.44" r="35.83"/></g><g class="cls-1"><circle class="cls-3" cx="25.4" cy="72.38" r="25.4"/></g><g class="cls-1"><circle class="cls-4" cx="78.33" cy="33.35" r="17.32"/></g><ellipse class="cls-5" cx="56.72" cy="5.99" rx="34.33" ry="5.99"/><ellipse class="cls-6" cx="56.72" cy="103.77" rx="34.33" ry="5.99"/><path class="cls-7" d="M89,105.66c2.91-1.07,2.9-3.41,2.75-5.17C90.41,84.16,79.5,62.62,65.09,56.13a1.38,1.38,0,0,1,0-2.51c14.41-6.49,25.32-28,26.66-44.35.15-1.76-.66-4.07-2.24-4.86-5.21-2.61-13-3.2-13-3.2"/><path class="cls-7" d="M24.58,4.07c-3.45,1.68-3.48,3.44-3.33,5.2C22.59,25.6,33.5,47.13,47.91,53.62a1.38,1.38,0,0,1,0,2.51c-14.41,6.49-25.32,28-26.66,44.36-.15,1.76-.11,6.91,18.41,8.56"/><path class="cls-8" d="M40.32,103.82c-.88,0-1.58-.56-1.51-1.22.79-7.35,8.51-16.82,17.91-16.82s17.11,9.47,17.91,16.82c.07.66-.64,1.22-1.52,1.22Z"/><path class="cls-8" d="M59.72,65.56c0-1.66-3-5.5-3-5.5s-3,3.84-3,5.5a3,3,0,0,0,6,0Z"/><path class="cls-8" d="M80,17.69H33.44A2.14,2.14,0,0,0,31.29,20c1,12,9.32,27,20.21,30.84,1.32.46,1.48.7,1.75,1.53.58,1.83,1.56,3.48,3.47,3.49h0c1.91,0,2.89-1.66,3.47-3.49.27-.83.43-1.07,1.75-1.53C72.85,47,81.19,32,82.17,20A2.14,2.14,0,0,0,80,17.69Z"/></g></g></svg>