<svg xmlns="http://www.w3.org/2000/svg" xmlns:xlink="http://www.w3.org/1999/xlink" width="1018.977" height="534.822" viewBox="0 0 1018.977 534.822">
  <defs>
    <clipPath id="clip-path">
      <rect id="Rechteck_242" data-name="Rechteck 242" width="1018.977" height="534.822" transform="translate(1015 605)" fill="#fff" stroke="#707070" stroke-width="1"/>
    </clipPath>
  </defs>
  <g id="Gruppe_maskieren_1" data-name="Gruppe maskieren 1" transform="translate(-1015 -605)" opacity="0.4" clip-path="url(#clip-path)">
    <g id="Gruppe_1211" data-name="Gruppe 1211" transform="translate(981.529 707.795)">
      <line id="Linie_584" data-name="Linie 584" y1="45.82" x2="106.195" transform="matrix(0.899, -0.438, 0.438, 0.899, 1009.249, 156.495)" fill="none" stroke="#699eba" stroke-miterlimit="10" stroke-width="1"/>
      <line id="Linie_587" data-name="Linie 587" x1="56.757" y2="76.81" transform="matrix(0.899, -0.438, 0.438, 0.899, 995.664, 128.642)" fill="none" stroke="#699eba" stroke-miterlimit="10" stroke-width="1"/>
      <line id="Linie_588" data-name="Linie 588" x1="89.901" y1="34.965" transform="matrix(0.899, -0.438, 0.438, 0.899, 1029.335, 197.678)" fill="none" stroke="#699eba" stroke-miterlimit="10" stroke-width="1"/>
      <line id="Linie_589" data-name="Linie 589" x1="52.342" y2="128.833" transform="matrix(0.899, -0.438, 0.438, 0.899, 982.29, 220.623)" fill="none" stroke="#699eba" stroke-miterlimit="10" stroke-width="1"/>
      <line id="Linie_590" data-name="Linie 590" x2="28.144" y2="41.753" transform="matrix(0.899, -0.438, 0.438, 0.899, 985.736, 172.488)" fill="none" stroke="#699eba" stroke-miterlimit="10" stroke-width="1"/>
      <line id="Linie_591" data-name="Linie 591" x1="17.539" y1="101.437" transform="matrix(0.899, -0.438, 0.438, 0.899, 986.445, 20.278)" fill="none" stroke="#699eba" stroke-miterlimit="10" stroke-width="1"/>
      <line id="Linie_592" data-name="Linie 592" x1="46.259" y1="57.288" transform="matrix(0.899, -0.438, 0.438, 0.899, 986.445, 20.278)" fill="none" stroke="#699eba" stroke-miterlimit="10" stroke-width="1"/>
      <line id="Linie_593" data-name="Linie 593" y1="135.858" x2="69.305" transform="matrix(0.899, -0.438, 0.438, 0.899, 924.154, 50.66)" fill="none" stroke="#699eba" stroke-miterlimit="10" stroke-width="1"/>
      <line id="Linie_594" data-name="Linie 594" y1="87.822" x2="112.556" transform="matrix(0.899, -0.438, 0.438, 0.899, 885.281, 69.62)" fill="none" stroke="#699eba" stroke-miterlimit="10" stroke-width="1"/>
      <line id="Linie_595" data-name="Linie 595" x1="20.486" y2="132.59" transform="matrix(0.899, -0.438, 0.438, 0.899, 905.366, 157.534)" fill="none" stroke="#699eba" stroke-miterlimit="10" stroke-width="1"/>
      <line id="Linie_596" data-name="Linie 596" x1="135.887" y2="62.648" transform="matrix(0.899, -0.438, 0.438, 0.899, 801.645, 208.123)" fill="none" stroke="#699eba" stroke-miterlimit="10" stroke-width="1"/>
      <line id="Linie_597" data-name="Linie 597" x1="123.727" y1="1.027" transform="matrix(0.899, -0.438, 0.438, 0.899, 812.124, 201.869)" fill="none" stroke="#699eba" stroke-miterlimit="10" stroke-width="1"/>
      <line id="Linie_598" data-name="Linie 598" x1="168.921" y1="49.699" transform="matrix(0.899, -0.438, 0.438, 0.899, 812.124, 201.869)" fill="none" stroke="#699eba" stroke-miterlimit="10" stroke-width="1"/>
      <line id="Linie_599" data-name="Linie 599" y1="63.675" x2="12.16" transform="matrix(0.899, -0.438, 0.438, 0.899, 801.194, 207.2)" fill="none" stroke="#699eba" stroke-miterlimit="10" stroke-width="1"/>
      <line id="Linie_600" data-name="Linie 600" x1="65.68" y2="83.917" transform="matrix(0.899, -0.438, 0.438, 0.899, 926.703, 201.281)" fill="none" stroke="#699eba" stroke-miterlimit="10" stroke-width="1"/>
      <line id="Linie_601" data-name="Linie 601" x2="115.401" y2="69.942" transform="matrix(0.899, -0.438, 0.438, 0.899, 829.108, 264.431)" fill="none" stroke="#699eba" stroke-miterlimit="10" stroke-width="1"/>
      <line id="Linie_602" data-name="Linie 602" y1="41.187" x2="84.474" transform="matrix(0.899, -0.438, 0.438, 0.899, 887.565, 313.736)" fill="none" stroke="#699eba" stroke-miterlimit="10" stroke-width="1"/>
      <line id="Linie_603" data-name="Linie 603" x1="30.927" y1="111.128" transform="matrix(0.899, -0.438, 0.438, 0.899, 829.108, 264.431)" fill="none" stroke="#699eba" stroke-miterlimit="10" stroke-width="1"/>
      <line id="Linie_604" data-name="Linie 604" x2="112.011" y2="23.073" transform="matrix(0.899, -0.438, 0.438, 0.899, 718.318, 292.796)" fill="none" stroke="#699eba" stroke-miterlimit="10" stroke-width="1"/>
      <line id="Linie_605" data-name="Linie 605" y1="41.596" x2="56.301" transform="matrix(0.899, -0.438, 0.438, 0.899, 700.084, 255.41)" fill="none" stroke="#699eba" stroke-miterlimit="10" stroke-width="1"/>
      <line id="Linie_606" data-name="Linie 606" x1="137.919" y1="10.696" transform="matrix(0.899, -0.438, 0.438, 0.899, 589.669, 343.641)" fill="none" stroke="#699eba" stroke-miterlimit="10" stroke-width="1"/>
      <line id="Linie_607" data-name="Linie 607" x1="55.71" y1="64.668" transform="matrix(0.899, -0.438, 0.438, 0.899, 750.687, 230.729)" fill="none" stroke="#699eba" stroke-miterlimit="10" stroke-width="1"/>
      <line id="Linie_608" data-name="Linie 608" x2="142.938" y2="134.201" transform="matrix(0.899, -0.438, 0.438, 0.899, 718.318, 292.796)" fill="none" stroke="#699eba" stroke-miterlimit="10" stroke-width="1"/>
      <line id="Linie_609" data-name="Linie 609" x2="143.497" y2="31.242" transform="matrix(0.899, -0.438, 0.438, 0.899, 763.586, 386.883)" fill="none" stroke="#699eba" stroke-miterlimit="10" stroke-width="1"/>
      <line id="Linie_610" data-name="Linie 610" y1="53.336" x2="72.013" transform="matrix(0.899, -0.438, 0.438, 0.899, 840.896, 382.323)" fill="none" stroke="#699eba" stroke-miterlimit="10" stroke-width="1"/>
      <line id="Linie_611" data-name="Linie 611" x2="77.971" y2="77.276" transform="matrix(0.899, -0.438, 0.438, 0.899, 864.277, 430.261)" fill="none" stroke="#699eba" stroke-miterlimit="10" stroke-width="1"/>
      <line id="Linie_612" data-name="Linie 612" x2="5.959" y2="130.613" transform="matrix(0.899, -0.438, 0.438, 0.899, 905.62, 350.755)" fill="none" stroke="#699eba" stroke-miterlimit="10" stroke-width="1"/>
      <line id="Linie_613" data-name="Linie 613" x1="119.998" y2="85.131" transform="matrix(0.899, -0.438, 0.438, 0.899, 930.914, 389.021)" fill="none" stroke="#699eba" stroke-miterlimit="10" stroke-width="1"/>
      <line id="Linie_614" data-name="Linie 614" x1="71.484" y1="84.579" transform="matrix(0.899, -0.438, 0.438, 0.899, 762.95, 385.579)" fill="none" stroke="#699eba" stroke-miterlimit="10" stroke-width="1"/>
      <line id="Linie_615" data-name="Linie 615" x1="0.559" y2="102.959" transform="matrix(0.899, -0.438, 0.438, 0.899, 717.816, 293.04)" fill="none" stroke="#699eba" stroke-miterlimit="10" stroke-width="1"/>
      <line id="Linie_616" data-name="Linie 616" x1="88.338" y2="58.318" transform="matrix(0.899, -0.438, 0.438, 0.899, 638.92, 331.52)" fill="none" stroke="#699eba" stroke-miterlimit="10" stroke-width="1"/>
      <line id="Linie_617" data-name="Linie 617" x1="87.779" y1="44.64" transform="matrix(0.899, -0.438, 0.438, 0.899, 664.485, 383.937)" fill="none" stroke="#699eba" stroke-miterlimit="10" stroke-width="1"/>
      <line id="Linie_618" data-name="Linie 618" x1="50.366" y2="99.53" transform="matrix(0.899, -0.438, 0.438, 0.899, 717.682, 407.658)" fill="none" stroke="#699eba" stroke-miterlimit="10" stroke-width="1"/>
      <line id="Linie_619" data-name="Linie 619" x1="121.85" y2="14.951" transform="matrix(0.899, -0.438, 0.438, 0.899, 754.759, 483.677)" fill="none" stroke="#699eba" stroke-miterlimit="10" stroke-width="1"/>
      <line id="Linie_621" data-name="Linie 621" y1="130.048" x2="52.823" transform="matrix(0.899, -0.438, 0.438, 0.899, 542.191, 366.797)" fill="none" stroke="#699eba" stroke-miterlimit="10" stroke-width="1"/>
      <line id="Linie_622" data-name="Linie 622" x1="49.58" y1="69.015" transform="matrix(0.899, -0.438, 0.438, 0.899, 589.669, 343.641)" fill="none" stroke="#699eba" stroke-miterlimit="10" stroke-width="1"/>
      <line id="Linie_623" data-name="Linie 623" x2="37.414" y2="144.17" transform="matrix(0.899, -0.438, 0.438, 0.899, 664.485, 383.937)" fill="none" stroke="#699eba" stroke-miterlimit="10" stroke-width="1"/>
      <line id="Linie_624" data-name="Linie 624" x1="102.404" y2="61.033" transform="matrix(0.899, -0.438, 0.438, 0.899, 572.446, 428.828)" fill="none" stroke="#699eba" stroke-miterlimit="10" stroke-width="1"/>
      <line id="Linie_625" data-name="Linie 625" x1="121.631" y2="170.493" transform="matrix(0.899, -0.438, 0.438, 0.899, 524.462, 330.446)" fill="none" stroke="#699eba" stroke-miterlimit="10" stroke-width="1"/>
      <line id="Linie_626" data-name="Linie 626" x1="121.631" y2="170.493" transform="matrix(0.899, -0.438, 0.438, 0.899, 524.462, 330.446)" fill="none" stroke="#699eba" stroke-miterlimit="10" stroke-width="1"/>
      <line id="Linie_627" data-name="Linie 627" x2="69.111" y2="51.141" transform="matrix(0.899, -0.438, 0.438, 0.899, 633.783, 277.126)" fill="none" stroke="#699eba" stroke-miterlimit="10" stroke-width="1"/>
      <line id="Linie_628" data-name="Linie 628" x1="211.935" y1="77.799" transform="matrix(0.899, -0.438, 0.438, 0.899, 439.894, 406.918)" fill="none" stroke="#699eba" stroke-miterlimit="10" stroke-width="1"/>
      <line id="Linie_629" data-name="Linie 629" x1="162.355" y1="8.784" transform="matrix(0.899, -0.438, 0.438, 0.899, 439.894, 406.918)" fill="none" stroke="#699eba" stroke-miterlimit="10" stroke-width="1"/>
      <line id="Linie_630" data-name="Linie 630" x2="55.98" y2="99.215" transform="matrix(0.899, -0.438, 0.438, 0.899, 346.087, 342.284)" fill="none" stroke="#699eba" stroke-miterlimit="10" stroke-width="1"/>
      <line id="Linie_631" data-name="Linie 631" x2="165.512" y2="238.047" transform="matrix(0.899, -0.438, 0.438, 0.899, 346.087, 342.284)" fill="none" stroke="#699eba" stroke-miterlimit="10" stroke-width="1"/>
      <path id="Pfad_58" data-name="Pfad 58" d="M30.477,101.464l-2.5-8.33L1.145,3.8,0,0" transform="matrix(0.899, -0.438, 0.438, 0.899, 346.09, 342.283)" fill="none" stroke="#699eba" stroke-miterlimit="10" stroke-width="1"/>
      <line id="Linie_633" data-name="Linie 633" x1="109.532" y1="138.832" transform="matrix(0.899, -0.438, 0.438, 0.899, 439.894, 406.918)" fill="none" stroke="#699eba" stroke-miterlimit="10" stroke-width="1"/>
      <path id="Pfad_60" data-name="Pfad 60" d="M109.883,106.783a2.585,2.585,0,0,0-.688.263,4,4,0,0,0-1.407,1.188L0,31.028,21.816,7.542a3.928,3.928,0,0,0,4.516.605,3.887,3.887,0,0,0,2.107-3.835L77.8,0Z" transform="matrix(0.899, -0.438, 0.438, 0.899, 348.038, 454.22)" fill="none" stroke="#699eba" stroke-miterlimit="10" stroke-width="1"/>
      <path id="Pfad_61" data-name="Pfad 61" d="M111.851,80.137,3.194,2.294,0,0" transform="matrix(0.899, -0.438, 0.438, 0.899, 225.98, 459.112)" fill="none" stroke="#699eba" stroke-miterlimit="10" stroke-width="1"/>
      <line id="Linie_638" data-name="Linie 638" x2="215.135" y2="46.864" transform="matrix(0.899, -0.438, 0.438, 0.899, 225.988, 459.106)" fill="none" stroke="#699eba" stroke-miterlimit="10" stroke-width="1"/>
      <line id="Linie_639" data-name="Linie 639" y1="52.351" x2="159.155" transform="matrix(0.899, -0.438, 0.438, 0.899, 203.039, 412.053)" fill="none" stroke="#699eba" stroke-miterlimit="10" stroke-width="1"/>
      <line id="Linie_640" data-name="Linie 640" y1="52.351" x2="159.155" transform="matrix(0.899, -0.438, 0.438, 0.899, 203.039, 412.053)" fill="none" stroke="#699eba" stroke-miterlimit="10" stroke-width="1"/>
      <line id="Linie_641" data-name="Linie 641" y1="39.223" x2="48.471" transform="matrix(0.899, -0.438, 0.438, 0.899, 208.794, 423.852)" fill="none" stroke="#699eba" stroke-miterlimit="10" stroke-width="1"/>
      <line id="Linie_642" data-name="Linie 642" x2="104.538" y2="27.058" transform="matrix(0.899, -0.438, 0.438, 0.899, 146.539, 424.111)" fill="none" stroke="#699eba" stroke-miterlimit="10" stroke-width="1"/>
      <line id="Linie_643" data-name="Linie 643" x2="56.068" y2="66.281" transform="matrix(0.899, -0.438, 0.438, 0.899, 146.539, 424.111)" fill="none" stroke="#699eba" stroke-miterlimit="10" stroke-width="1"/>
      <line id="Linie_644" data-name="Linie 644" x1="41.664" y2="136.407" transform="matrix(0.899, -0.438, 0.438, 0.899, 109.092, 442.375)" fill="none" stroke="#699eba" stroke-miterlimit="10" stroke-width="1"/>
      <line id="Linie_651" data-name="Linie 651" x1="22.799" y2="106.102" transform="matrix(0.899, -0.438, 0.438, 0.899, 325.595, 352.279)" fill="none" stroke="#699eba" stroke-miterlimit="10" stroke-width="1"/>
      <path id="Pfad_63" data-name="Pfad 63" d="M0,2.242,21.576.329,25.506,0" transform="matrix(0.899, -0.438, 0.438, 0.899, 416.979, 418.103)" fill="none" stroke="#699eba" stroke-miterlimit="10" stroke-width="1"/>
      <line id="Linie_653" data-name="Linie 653" x2="65.531" y2="120.021" transform="matrix(0.899, -0.438, 0.438, 0.899, 260.595, 368.496)" fill="none" stroke="#699eba" stroke-miterlimit="10" stroke-width="1"/>
      <line id="Linie_663" data-name="Linie 663" x2="126.893" y2="0.012" transform="matrix(0.899, -0.438, 0.438, 0.899, 146.539, 424.111)" fill="none" stroke="#699eba" stroke-miterlimit="10" stroke-width="1"/>
      <line id="Linie_664" data-name="Linie 664" x1="135.038" y1="54.785" transform="matrix(0.899, -0.438, 0.438, 0.899, 0, 435.621)" fill="none" stroke="#699eba" stroke-miterlimit="10" stroke-width="1"/>
      <line id="Linie_665" data-name="Linie 665" y1="13.127" x2="110.685" transform="matrix(0.899, -0.438, 0.438, 0.899, 246.604, 390.805)" fill="none" stroke="#699eba" stroke-miterlimit="10" stroke-width="1"/>
      <line id="Linie_666" data-name="Linie 666" y1="27.046" x2="22.355" transform="matrix(0.899, -0.438, 0.438, 0.899, 240.503, 378.295)" fill="none" stroke="#699eba" stroke-miterlimit="10" stroke-width="1"/>
      <line id="Linie_667" data-name="Linie 667" x1="88.33" y1="13.918" transform="matrix(0.899, -0.438, 0.438, 0.899, 260.595, 368.496)" fill="none" stroke="#699eba" stroke-miterlimit="10" stroke-width="1"/>
      <line id="Linie_668" data-name="Linie 668" x2="125.956" y2="45.481" transform="matrix(0.899, -0.438, 0.438, 0.899, 905.62, 350.755)" fill="none" stroke="#699eba" stroke-miterlimit="10" stroke-width="1"/>
      <line id="Linie_669" data-name="Linie 669" x2="156.883" y2="156.61" transform="matrix(0.899, -0.438, 0.438, 0.899, 829.108, 264.431)" fill="none" stroke="#699eba" stroke-miterlimit="10" stroke-width="1"/>
      <line id="Linie_670" data-name="Linie 670" x2="41.482" y2="86.668" transform="matrix(0.899, -0.438, 0.438, 0.899, 963.49, 276.705)" fill="none" stroke="#699eba" stroke-miterlimit="10" stroke-width="1"/>
      <line id="Linie_672" data-name="Linie 672" x1="122.583" y1="22.143" transform="matrix(0.899, -0.438, 0.438, 0.899, 963.49, 276.705)" fill="none" stroke="#699eba" stroke-miterlimit="10" stroke-width="1"/>
      <line id="Linie_673" data-name="Linie 673" x1="28.759" y1="64.308" transform="matrix(0.899, -0.438, 0.438, 0.899, 1029.335, 197.678)" fill="none" stroke="#699eba" stroke-miterlimit="10" stroke-width="1"/>
      <line id="Linie_675" data-name="Linie 675" y1="34.421" x2="86.844" transform="matrix(0.899, -0.438, 0.438, 0.899, 968.622, 141.831)" fill="none" stroke="#699eba" stroke-miterlimit="10" stroke-width="1"/>
      <path id="Pfad_65" data-name="Pfad 65" d="M7.5,2.184A3.961,3.961,0,1,1,2.182.423,3.96,3.96,0,0,1,7.5,2.184Z" transform="matrix(0.899, -0.438, 0.438, 0.899, 981.148, 18.454)" fill="#699eba"/>
      <path id="Pfad_66" data-name="Pfad 66" d="M7.807,3.013A3.961,3.961,0,1,1,3.012.117,3.958,3.958,0,0,1,7.807,3.013Z" transform="matrix(0.899, -0.438, 0.438, 0.899, 980.437, 170.664)" fill="#699eba" stroke="#699eba" stroke-width="1"/>
      <path id="Pfad_67" data-name="Pfad 67" d="M7.807,3.012A3.961,3.961,0,1,1,3.012.116,3.956,3.956,0,0,1,7.807,3.012Z" transform="matrix(0.899, -0.438, 0.438, 0.899, 1024.036, 195.854)" fill="#699eba"/>
      <path id="Pfad_70" data-name="Pfad 70" d="M7.808,3.012a3.961,3.961,0,1,1-4.8-2.9A3.958,3.958,0,0,1,7.808,3.012Z" transform="matrix(0.899, -0.438, 0.438, 0.899, 958.192, 274.88)" fill="#699eba"/>
      <path id="Pfad_71" data-name="Pfad 71" d="M7.808,3.012a3.961,3.961,0,1,1-4.8-2.9A3.961,3.961,0,0,1,7.808,3.012Z" transform="matrix(0.899, -0.438, 0.438, 0.899, 900.323, 348.93)" fill="#699eba"/>
      <path id="Pfad_73" data-name="Pfad 73" d="M7.188,1.663A3.961,3.961,0,1,1,1.664.734,3.963,3.963,0,0,1,7.188,1.663Z" transform="matrix(0.899, -0.438, 0.438, 0.899, 823.811, 262.606)" fill="#699eba"/>
      <path id="Pfad_74" data-name="Pfad 74" d="M7.186,1.663A3.961,3.961,0,1,1,1.663.734,3.956,3.956,0,0,1,7.186,1.663Z" transform="matrix(0.899, -0.438, 0.438, 0.899, 745.391, 228.906)" fill="#699eba"/>
      <path id="Pfad_75" data-name="Pfad 75" d="M7.186,1.663A3.961,3.961,0,1,1,1.663.734,3.965,3.965,0,0,1,7.186,1.663Z" transform="matrix(0.899, -0.438, 0.438, 0.899, 806.828, 200.044)" fill="#699eba"/>
      <path id="Pfad_76" data-name="Pfad 76" d="M7.807,3.012A3.961,3.961,0,1,1,3.012.116,3.959,3.959,0,0,1,7.807,3.012Z" transform="matrix(0.899, -0.438, 0.438, 0.899, 918.481, 146.73)" fill="#699eba"/>
      <path id="Pfad_77" data-name="Pfad 77" d="M7.808,3.01A3.961,3.961,0,1,1,3.01.117,3.965,3.965,0,0,1,7.808,3.01Z" transform="matrix(0.899, -0.438, 0.438, 0.899, 858.98, 428.437)" fill="#699eba"/>
      <path id="Pfad_78" data-name="Pfad 78" d="M7.807,3.012A3.961,3.961,0,1,1,3.012.116,3.956,3.956,0,0,1,7.807,3.012Z" transform="matrix(0.899, -0.438, 0.438, 0.899, 757.651, 383.755)" fill="#699eba"/>
      <path id="Pfad_79" data-name="Pfad 79" d="M7.808,3.012a3.961,3.961,0,1,1-4.8-2.9A3.958,3.958,0,0,1,7.808,3.012Z" transform="matrix(0.899, -0.438, 0.438, 0.899, 713.021, 290.971)" fill="#699eba"/>
      <path id="Pfad_80" data-name="Pfad 80" d="M7.808,3.013A3.961,3.961,0,1,1,3.013.117,3.958,3.958,0,0,1,7.808,3.013Z" transform="matrix(0.899, -0.438, 0.438, 0.899, 584.371, 341.817)" fill="#699eba"/>
      <path id="Pfad_81" data-name="Pfad 81" d="M7.807,3.012A3.961,3.961,0,1,1,3.012.116,3.956,3.956,0,0,1,7.807,3.012Z" transform="matrix(0.899, -0.438, 0.438, 0.899, 628.484, 275.302)" fill="#699eba"/>
      <path id="Pfad_82" data-name="Pfad 82" d="M7.478,2.138A3.962,3.962,0,1,1,2.138.446,3.961,3.961,0,0,1,7.478,2.138Z" transform="matrix(0.899, -0.438, 0.438, 0.899, 434.596, 405.093)" fill="#699eba"/>
      <path id="Pfad_83" data-name="Pfad 83" d="M7.478,2.135A3.962,3.962,0,1,1,2.138.446,3.959,3.959,0,0,1,7.478,2.135Z" transform="matrix(0.899, -0.438, 0.438, 0.899, 340.789, 340.462)" fill="#699eba"/>
      <path id="Pfad_85" data-name="Pfad 85" d="M7.478,2.135A3.962,3.962,0,1,1,2.138.446,3.959,3.959,0,0,1,7.478,2.135Z" transform="matrix(0.899, -0.438, 0.438, 0.899, 255.297, 366.673)" fill="#699eba"/>
      <path id="Pfad_88" data-name="Pfad 88" d="M7.478,2.135A3.962,3.962,0,1,1,2.138.446,3.961,3.961,0,0,1,7.478,2.135Z" transform="matrix(0.899, -0.438, 0.438, 0.899, 247.061, 400.78)" fill="#699eba"/>
      <path id="Pfad_89" data-name="Pfad 89" d="M7.478,2.135A3.962,3.962,0,1,1,2.138.446,3.961,3.961,0,0,1,7.478,2.135Z" transform="matrix(0.899, -0.438, 0.438, 0.899, 140.089, 423.841)" fill="#699eba"/>
      <path id="Pfad_96" data-name="Pfad 96" d="M7.807,3.013A3.961,3.961,0,1,1,3.012.117,3.96,3.96,0,0,1,7.807,3.013Z" transform="matrix(0.899, -0.438, 0.438, 0.899, 659.188, 382.112)" fill="#699eba"/>
      <line id="Linie_585" data-name="Linie 585" y1="44.149" x2="28.719" transform="matrix(0.899, -0.438, 0.438, 0.899, 1027.323, 64.08)" fill="none" stroke="#699eba" stroke-miterlimit="10" stroke-width="1"/>
      <line id="Linie_586" data-name="Linie 586" x2="49.438" y2="30.99" transform="matrix(0.899, -0.438, 0.438, 0.899, 1046.677, 103.761)" fill="none" stroke="#699eba" stroke-miterlimit="10" stroke-width="1"/>
      <line id="Linie_620" data-name="Linie 620" x2="139.817" y2="83.137" transform="matrix(0.899, -0.438, 0.438, 0.899, 599.201, 483.684)" fill="none" stroke="#699eba" stroke-miterlimit="10" stroke-width="1"/>
      <line id="Linie_632" data-name="Linie 632" x1="1.137" y1="3.768" transform="matrix(0.899, -0.438, 0.438, 0.899, 493.61, 502.027)" fill="none" stroke="#699eba" stroke-miterlimit="10" stroke-width="1"/>
      <path id="Pfad_59" data-name="Pfad 59" d="M0,0,3.868.762l6.607,1.307,91.334,23.964" transform="matrix(0.899, -0.438, 0.438, 0.899, 496.283, 504.915)" fill="none" stroke="#699eba" stroke-miterlimit="10" stroke-width="1"/>
      <line id="Linie_634" data-name="Linie 634" x1="127.698" y1="91.05" transform="matrix(0.899, -0.438, 0.438, 0.899, 496.283, 504.915)" fill="none" stroke="#699eba" stroke-miterlimit="10" stroke-width="1"/>
      <line id="Linie_635" data-name="Linie 635" x2="113.929" y2="18.121" transform="matrix(0.899, -0.438, 0.438, 0.899, 650.971, 530.771)" fill="none" stroke="#699eba" stroke-miterlimit="10" stroke-width="1"/>
      <line id="Linie_636" data-name="Linie 636" x1="158.301" y2="76.825" transform="matrix(0.899, -0.438, 0.438, 0.899, 508.691, 600.166)" fill="none" stroke="#699eba" stroke-miterlimit="10" stroke-width="1"/>
      <line id="Linie_637" data-name="Linie 637" x1="3.232" y1="2.317" transform="matrix(0.899, -0.438, 0.438, 0.899, 492.363, 504.249)" fill="none" stroke="#699eba" stroke-miterlimit="10" stroke-width="1"/>
      <line id="Linie_645" data-name="Linie 645" x1="97.731" y2="70.126" transform="matrix(0.899, -0.438, 0.438, 0.899, 138.148, 501.948)" fill="none" stroke="#699eba" stroke-miterlimit="10" stroke-width="1"/>
      <line id="Linie_646" data-name="Linie 646" x2="23.154" y2="190.621" transform="matrix(0.899, -0.438, 0.438, 0.899, 225.988, 459.106)" fill="none" stroke="#699eba" stroke-miterlimit="10" stroke-width="1"/>
      <line id="Linie_647" data-name="Linie 647" x1="48.544" y2="67.272" transform="matrix(0.899, -0.438, 0.438, 0.899, 300.871, 559.821)" fill="none" stroke="#699eba" stroke-miterlimit="10" stroke-width="1"/>
      <line id="Linie_648" data-name="Linie 648" x2="107.652" y2="40.425" transform="matrix(0.899, -0.438, 0.438, 0.899, 215.883, 631.143)" fill="none" stroke="#699eba" stroke-miterlimit="10" stroke-width="1"/>
      <line id="Linie_649" data-name="Linie 649" x1="2.691" y2="2.899" transform="matrix(0.899, -0.438, 0.438, 0.899, 369.682, 448.829)" fill="none" stroke="#699eba" stroke-miterlimit="10" stroke-width="1"/>
      <path id="Pfad_62" data-name="Pfad 62" d="M40.14,0,2.691,40.3,0,43.2" transform="matrix(0.899, -0.438, 0.438, 0.899, 325.562, 499.703)" fill="none" stroke="#699eba" stroke-miterlimit="10" stroke-width="1"/>
      <line id="Linie_650" data-name="Linie 650" x1="169.429" y1="53.223" transform="matrix(0.899, -0.438, 0.438, 0.899, 168.889, 564.977)" fill="none" stroke="#699eba" stroke-miterlimit="10" stroke-width="1"/>
      <line id="Linie_652" data-name="Linie 652" x1="3.93" y2="0.329" transform="matrix(0.899, -0.438, 0.438, 0.899, 371.956, 447.354)" fill="none" stroke="#699eba" stroke-miterlimit="10" stroke-width="1"/>
      <line id="Linie_654" data-name="Linie 654" x2="151.158" y2="36.32" transform="matrix(0.899, -0.438, 0.438, 0.899, 344.502, 538.541)" fill="none" stroke="#699eba" stroke-miterlimit="10" stroke-width="1"/>
      <line id="Linie_655" data-name="Linie 655" y1="84.206" x2="156.605" transform="matrix(0.899, -0.438, 0.438, 0.899, 355.528, 573.573)" fill="none" stroke="#699eba" stroke-miterlimit="10" stroke-width="1"/>
      <line id="Linie_656" data-name="Linie 656" x2="126.004" y2="83.663" transform="matrix(0.899, -0.438, 0.438, 0.899, 392.442, 649.257)" fill="none" stroke="#699eba" stroke-miterlimit="10" stroke-width="1"/>
      <line id="Linie_657" data-name="Linie 657" x2="212.561" y2="29.863" transform="matrix(0.899, -0.438, 0.438, 0.899, 338.229, 735.556)" fill="none" stroke="#699eba" stroke-miterlimit="10" stroke-width="1"/>
      <line id="Linie_658" data-name="Linie 658" x1="30.601" y2="167.869" transform="matrix(0.899, -0.438, 0.438, 0.899, 468.78, 518.336)" fill="none" stroke="#699eba" stroke-miterlimit="10" stroke-width="1"/>
      <line id="Linie_659" data-name="Linie 659" y1="120.526" x2="5.447" transform="matrix(0.899, -0.438, 0.438, 0.899, 339.606, 540.929)" fill="none" stroke="#699eba" stroke-miterlimit="10" stroke-width="1"/>
      <line id="Linie_660" data-name="Linie 660" x1="43.097" y1="53.254" transform="matrix(0.899, -0.438, 0.438, 0.899, 330.361, 620.285)" fill="none" stroke="#699eba" stroke-miterlimit="10" stroke-width="1"/>
      <line id="Linie_661" data-name="Linie 661" x1="150.749" y1="93.678" transform="matrix(0.899, -0.438, 0.438, 0.899, 215.883, 631.143)" fill="none" stroke="#699eba" stroke-miterlimit="10" stroke-width="1"/>
      <line id="Linie_662" data-name="Linie 662" x1="86.557" y2="53.8" transform="matrix(0.899, -0.438, 0.438, 0.899, 314.645, 687.201)" fill="none" stroke="#699eba" stroke-miterlimit="10" stroke-width="1"/>
      <line id="Linie_671" data-name="Linie 671" x1="81.101" y2="64.525" transform="matrix(0.899, -0.438, 0.438, 0.899, 1010.481, 278.423)" fill="none" stroke="#699eba" stroke-miterlimit="10" stroke-width="1"/>
      <line id="Linie_674" data-name="Linie 674" y1="29.342" x2="61.142" transform="matrix(0.899, -0.438, 0.438, 0.899, 1070.511, 216.498)" fill="none" stroke="#699eba" stroke-miterlimit="10" stroke-width="1"/>
      <path id="Pfad_64" data-name="Pfad 64" d="M7.807,3.012A3.961,3.961,0,1,1,3.012.116,3.956,3.956,0,0,1,7.807,3.012Z" transform="matrix(0.899, -0.438, 0.438, 0.899, 1041.378, 101.936)" fill="#699eba"/>
      <path id="Pfad_68" data-name="Pfad 68" d="M7.807,3.013A3.961,3.961,0,1,1,3.012.117,3.958,3.958,0,0,1,7.807,3.013Z" transform="matrix(0.899, -0.438, 0.438, 0.899, 1034.162, 333.74)" fill="#699eba"/>
      <path id="Pfad_69" data-name="Pfad 69" d="M7.807,3.013A3.961,3.961,0,1,1,3.012.117,3.958,3.958,0,0,1,7.807,3.013Z" transform="matrix(0.899, -0.438, 0.438, 0.899, 1078.076, 241.047)" fill="#699eba"/>
      <path id="Pfad_72" data-name="Pfad 72" d="M7.808,3.012A3.961,3.961,0,1,1,3.013.116,3.958,3.958,0,0,1,7.808,3.012Z" transform="matrix(0.899, -0.438, 0.438, 0.899, 962.935, 463.711)" fill="#699eba"/>
      <path id="Pfad_84" data-name="Pfad 84" d="M7.9,3.634A3.887,3.887,0,0,1,5.788,7.468a3.928,3.928,0,0,1-4.516-.605A3.6,3.6,0,0,1,.457,5.785,3.89,3.89,0,0,1,2.086.506c.022-.041.022-.041.054-.048A4.009,4.009,0,0,1,4.786.081,3.867,3.867,0,0,1,7.5,2.131,3.708,3.708,0,0,1,7.9,3.634Z" transform="matrix(0.899, -0.438, 0.438, 0.899, 366.801, 445.825)" fill="#699eba"/>
      <path id="Pfad_86" data-name="Pfad 86" d="M7.478,2.135A3.962,3.962,0,1,1,2.138.446,3.964,3.964,0,0,1,7.478,2.135Z" transform="matrix(0.899, -0.438, 0.438, 0.899, 220.69, 457.282)" fill="#699eba"/>
      <path id="Pfad_87" data-name="Pfad 87" d="M7.478,2.138A3.962,3.962,0,1,1,2.135.446,3.96,3.96,0,0,1,7.478,2.138Z" transform="matrix(0.899, -0.438, 0.438, 0.899, 339.205, 536.715)" fill="#699eba"/>
      <path id="Pfad_90" data-name="Pfad 90" d="M7.478,2.138A3.962,3.962,0,1,1,2.138.446,3.959,3.959,0,0,1,7.478,2.138Z" transform="matrix(0.899, -0.438, 0.438, 0.899, 325.062, 618.46)" fill="#699eba"/>
      <path id="Pfad_91" data-name="Pfad 91" d="M7.82,4.708A3.853,3.853,0,0,1,3.259,7.83,3.893,3.893,0,0,1,.493,5.824C.455,5.8.455,5.8.448,5.77A3.917,3.917,0,0,1,.109,3.016,4.155,4.155,0,0,1,.721,1.631,4,4,0,0,1,2.128.443,2.584,2.584,0,0,1,2.816.18,3.9,3.9,0,0,1,7.455,2.122,3.846,3.846,0,0,1,7.82,4.708Z" transform="matrix(0.899, -0.438, 0.438, 0.899, 491.001, 503.1)" fill="#699eba"/>
      <path id="Pfad_92" data-name="Pfad 92" d="M7.478,2.138A3.962,3.962,0,1,1,2.138.446,3.961,3.961,0,0,1,7.478,2.138Z" transform="matrix(0.899, -0.438, 0.438, 0.899, 537.071, 667.392)" fill="#699eba"/>
      <path id="Pfad_93" data-name="Pfad 93" d="M7.478,2.135A3.962,3.962,0,1,1,2.135.446,3.963,3.963,0,0,1,7.478,2.135Z" transform="matrix(0.899, -0.438, 0.438, 0.899, 387.145, 647.433)" fill="#699eba"/>
      <path id="Pfad_94" data-name="Pfad 94" d="M7.807,3.012A3.961,3.961,0,1,1,3.012.116,3.958,3.958,0,0,1,7.807,3.012Z" transform="matrix(0.899, -0.438, 0.438, 0.899, 755.234, 494.355)" fill="#699eba"/>
      <path id="Pfad_95" data-name="Pfad 95" d="M7.808,3.012a3.961,3.961,0,1,1-4.8-2.9A3.966,3.966,0,0,1,7.808,3.012Z" transform="matrix(0.899, -0.438, 0.438, 0.899, 645.673, 528.946)" fill="#699eba"/>
      <path id="Pfad_97" data-name="Pfad 97" d="M7.807,3.012A3.961,3.961,0,1,1,3.012.116,3.959,3.959,0,0,1,7.807,3.012Z" transform="matrix(0.899, -0.438, 0.438, 0.899, 593.903, 481.859)" fill="#699eba"/>
    </g>
  </g>
</svg>
