<svg xmlns="http://www.w3.org/2000/svg" xmlns:xlink="http://www.w3.org/1999/xlink" viewBox="0 0 144.52 115.16"><defs><style>.cls-1,.cls-9{opacity:0.4;}.cls-2{fill:url(#Unbenannter_Verlauf_6);}.cls-3{fill:url(#Unbenannter_Verlauf_6-2);}.cls-4{fill:url(#Unbenannter_Verlauf_6-3);}.cls-5{fill:#002b49;}.cls-6{fill:#fff;}.cls-10,.cls-11,.cls-7,.cls-8{fill:none;}.cls-7{stroke:#fff;}.cls-11,.cls-7{stroke-linecap:round;}.cls-10,.cls-7{stroke-miterlimit:10;}.cls-10,.cls-11,.cls-8{stroke:#fa001f;}.cls-11,.cls-8{stroke-linejoin:round;}.cls-9{fill:url(#Unbenannter_Verlauf_24);}</style><linearGradient id="Unbenannter_Verlauf_6" x1="70.18" y1="98.02" x2="70.18" gradientUnits="userSpaceOnUse"><stop offset="0" stop-color="#fff" stop-opacity="0"/><stop offset="0.19" stop-color="#d2e2ea" stop-opacity="0.3"/><stop offset="0.38" stop-color="#accad9" stop-opacity="0.55"/><stop offset="0.56" stop-color="#8fb7cc" stop-opacity="0.75"/><stop offset="0.73" stop-color="#7aa9c2" stop-opacity="0.89"/><stop offset="0.88" stop-color="#6da1bc" stop-opacity="0.97"/><stop offset="1" stop-color="#699eba"/></linearGradient><linearGradient id="Unbenannter_Verlauf_6-2" x1="112.19" y1="99.69" x2="112.19" y2="35.04" xlink:href="#Unbenannter_Verlauf_6"/><linearGradient id="Unbenannter_Verlauf_6-3" x1="72.19" y1="100.35" x2="72.19" y2="40.99" xlink:href="#Unbenannter_Verlauf_6"/><linearGradient id="Unbenannter_Verlauf_24" x1="24.41" y1="79.22" x2="74.09" y2="79.22" gradientUnits="userSpaceOnUse"><stop offset="0" stop-color="#fff" stop-opacity="0"/><stop offset="0" stop-color="#fffefe" stop-opacity="0"/><stop offset="0.18" stop-color="#fda5b0" stop-opacity="0.35"/><stop offset="0.34" stop-color="#fc5e72" stop-opacity="0.63"/><stop offset="0.47" stop-color="#fb2b45" stop-opacity="0.83"/><stop offset="0.57" stop-color="#fa0c29" stop-opacity="0.95"/><stop offset="0.63" stop-color="#fa001f"/></linearGradient></defs><title>datenschutz</title><g id="Ebene_2" data-name="Ebene 2"><g id="Ebene_1-2" data-name="Ebene 1"><g class="cls-1"><circle class="cls-2" cx="70.18" cy="49.01" r="49.01"/></g><g class="cls-1"><circle class="cls-3" cx="112.19" cy="67.36" r="32.33"/></g><g class="cls-1"><path class="cls-4" d="M138.74,78.53c-9.58,12.07-34.6,8.66-45.66-2.09l-13-12.6-.45-.37a27.13,27.13,0,0,0-33.78-.53A22.9,22.9,0,0,0,.45,60a54.58,54.58,0,0,0-.4,10.14C1.2,87,16.17,100.35,33.35,100.35h78.58a32.46,32.46,0,0,0,32.45-32.46v-4S143.83,72.11,138.74,78.53Z"/></g><path class="cls-5" d="M75.66,114.66c-8.54,0-15.63-6.5-17.24-15.8a21.77,21.77,0,0,1-.33-3.52A11.94,11.94,0,0,1,69.42,83.42l.41,0,.06-.4a26.15,26.15,0,0,1,50.29-4.91l.11.29.3,0a17,17,0,0,1,14.94,16.93v2.08a17.19,17.19,0,0,1-17.14,17.24Z"/><path class="cls-6" d="M95.69,61.6a25.75,25.75,0,0,1,24,16.67l.22.57.6.07A16.48,16.48,0,0,1,135,95.34v2.17a16.67,16.67,0,0,1-16.65,16.65H75.66c-8.42,0-15.15-6.18-16.74-15.38a20.85,20.85,0,0,1-.33-3.44A11.43,11.43,0,0,1,69.45,83.92l.81,0,.13-.8A25.52,25.52,0,0,1,95.69,61.6m0-1A26.65,26.65,0,0,0,69.4,82.92,12.44,12.44,0,0,0,57.59,95.34,22.53,22.53,0,0,0,57.93,99c1.57,9.06,8.4,16.21,17.73,16.21h42.72A17.65,17.65,0,0,0,136,97.51V95.34a17.43,17.43,0,0,0-15.38-17.42,26.65,26.65,0,0,0-25-17.32Z"/><path class="cls-7" d="M69,83.44s6-1,13.7,5.64"/><path class="cls-7" d="M120.65,78.4s-5.8-.27-9.11,4.54"/><path class="cls-8" d="M46.16,114h0c-15.22-13-24-22.62-24-42.64V55.81l24-14.69,24,14.69V71.33C70.15,91.35,61.38,101,46.16,114Z"/><path class="cls-8" d="M46.16,108.68c-14-12.34-20-20.85-20-37.35V58.05l20-12.24,20,12.24V71.33C66.15,87.83,60.22,96.34,46.16,108.68Z"/><path class="cls-9" d="M53.26,113.74a5.55,5.55,0,0,1-7.76-.34c-6.93-7.49-21.09-24.68-21.09-40.33V61.89a8.73,8.73,0,0,1,4.17-7.45l16.1-9.86a8.72,8.72,0,0,1,9.13,0l16.1,9.86a8.74,8.74,0,0,1,4.18,7.45V73.07C74.09,92,66.54,101.92,53.26,113.74Z"/><path class="cls-10" d="M49.37,75.75a5.35,5.35,0,1,0-6.42,0l-1.19,6.09a3.73,3.73,0,0,0,3.66,4.45H46.9a3.74,3.74,0,0,0,3.67-4.45Z"/><line class="cls-11" x1="46.44" y1="29.76" x2="46.44" y2="34.97"/><line class="cls-11" x1="22.96" y1="35.98" x2="25.56" y2="40.49"/><line class="cls-11" x1="5.73" y1="53.11" x2="10.24" y2="55.71"/><line class="cls-11" x1="87.02" y1="53.35" x2="82.51" y2="55.95"/><line class="cls-11" x1="69.89" y1="36.12" x2="67.29" y2="40.62"/></g></g></svg>