<svg xmlns="http://www.w3.org/2000/svg" xmlns:xlink="http://www.w3.org/1999/xlink" viewBox="0 0 229.82 146.96"><defs><style>.cls-1{opacity:0.4;}.cls-2{fill:url(#Unbenannter_Verlauf_6);}.cls-3{fill:url(#Unbenannter_Verlauf_6-2);}.cls-4{opacity:0.6;}.cls-5{fill:url(#Unbenannter_Verlauf_6-3);}.cls-6{fill:#002b49;}.cls-12,.cls-6{stroke:#fff;}.cls-10,.cls-12,.cls-13,.cls-6{stroke-linecap:round;stroke-linejoin:round;}.cls-7{fill:url(#Unbenannter_Verlauf_18);}.cls-8{fill:url(#Unbenannter_Verlauf_18-2);}.cls-10,.cls-12,.cls-13,.cls-9{fill:none;}.cls-10,.cls-9{stroke:#fa001f;}.cls-9{stroke-miterlimit:10;}.cls-11{fill:#fff;}.cls-12{stroke-width:3px;}.cls-13{stroke:#002b49;}</style><linearGradient id="Unbenannter_Verlauf_6" x1="130.13" y1="134.18" x2="130.13" y2="73.05" gradientUnits="userSpaceOnUse"><stop offset="0" stop-color="#fff" stop-opacity="0"/><stop offset="0.19" stop-color="#d2e2ea" stop-opacity="0.3"/><stop offset="0.38" stop-color="#accad9" stop-opacity="0.55"/><stop offset="0.56" stop-color="#8fb7cc" stop-opacity="0.75"/><stop offset="0.73" stop-color="#7aa9c2" stop-opacity="0.89"/><stop offset="0.88" stop-color="#6da1bc" stop-opacity="0.97"/><stop offset="1" stop-color="#699eba"/></linearGradient><linearGradient id="Unbenannter_Verlauf_6-2" x1="58.06" y1="146.5" x2="58.06" y2="30.37" xlink:href="#Unbenannter_Verlauf_6"/><linearGradient id="Unbenannter_Verlauf_6-3" x1="122.29" y1="124.45" x2="122.29" y2="0" xlink:href="#Unbenannter_Verlauf_6"/><linearGradient id="Unbenannter_Verlauf_18" x1="74.7" y1="140.3" x2="130.87" y2="84.12" gradientTransform="translate(34.48 -23.77) rotate(15.82)" gradientUnits="userSpaceOnUse"><stop offset="0" stop-color="#fff" stop-opacity="0"/><stop offset="0.73" stop-color="#fa001f"/></linearGradient><linearGradient id="Unbenannter_Verlauf_18-2" x1="75.18" y1="91.61" x2="103.77" y2="63.02" gradientTransform="matrix(1, 0, 0, 1, 0, 0)" xlink:href="#Unbenannter_Verlauf_18"/></defs><title>login</title><g id="Ebene_2" data-name="Ebene 2"><g id="Ebene_2-2" data-name="Ebene 2"><g class="cls-1"><circle class="cls-2" cx="130.13" cy="103.61" r="30.57"/></g><g class="cls-1"><circle class="cls-3" cx="58.06" cy="88.43" r="58.06"/></g><g class="cls-4"><path class="cls-5" d="M171.14,31.45A39.25,39.25,0,0,0,152.72,36a62.24,62.24,0,1,0-7.42,64.51,39.37,39.37,0,1,0,25.84-69.08Z"/></g><path class="cls-6" d="M139.48,118.21c-5.46,2.69-6.25-3.79-6.25-3.79h0l-.67-4.84a14.6,14.6,0,0,0-11.74,5.56.54.54,0,0,0,.38.89l8.52.46-1.89,12.06a.53.53,0,0,0,1,.41,25,25,0,0,1,14-9c11.07-2.71,13.11-4.13,12.74-7.81C155.08,107.66,145.87,115.05,139.48,118.21Z"/><path class="cls-6" d="M160.39,106.78l.82,2.68-.83-2.72h-.1Z"/><polygon class="cls-6" points="139.81 116.07 139.81 116.08 139.81 116.08 139.81 116.07"/><g class="cls-1"><rect class="cls-7" x="65.5" y="93.57" width="74.57" height="37.29" rx="5.33" transform="translate(-26.7 32.27) rotate(-15.82)"/><path class="cls-8" d="M82.13,98.56l10.24-2.9L86.45,74.78a5.51,5.51,0,1,1,10.6-3l2.37,8.28a5.33,5.33,0,1,0,10.25-2.9l-2.08-7.29c-2.37-8.38-10.85-13.76-19.32-11.78a16.16,16.16,0,0,0-11.9,20.15Z"/></g><rect class="cls-9" x="70.32" y="90.82" width="67.69" height="33.85" rx="4.84" transform="translate(-25.43 32.48) rotate(-15.82)"/><path class="cls-9" d="M85.41,95.35l9.3-2.63-5.37-19A5,5,0,1,1,99,71l2.15,7.52a4.84,4.84,0,0,0,9.31-2.64l-1.89-6.62A15,15,0,0,0,91,58.61,14.66,14.66,0,0,0,80.19,76.9Z"/><path class="cls-9" d="M108.49,114.12l-1.75-6.18a5,5,0,1,0-4.66,1.32l1.76,6.18a2.42,2.42,0,1,0,4.65-1.32Z"/><path class="cls-6" d="M155.15,109.33C143,107,135.1,108,133.46,113.43l-.22,1h0s.79,6.48,6.25,3.79c6.39-3.16,15.6-10.55,16.05-6l-.28-2.79Z"/><line class="cls-10" x1="83.6" y1="42.21" x2="84.82" y2="46.93"/><line class="cls-10" x1="63.78" y1="53.37" x2="67.2" y2="56.84"/><line class="cls-10" x1="52.19" y1="72.94" x2="56.89" y2="74.24"/><line class="cls-10" x1="125.92" y1="54.05" x2="122.44" y2="57.47"/><line class="cls-10" x1="106.35" y1="42.46" x2="105.05" y2="47.16"/><line class="cls-11" x1="136.06" y1="110.02" x2="141.49" y2="145.46"/><line class="cls-12" x1="136.06" y1="110.02" x2="141.49" y2="145.46"/><line class="cls-13" x1="136.06" y1="110.02" x2="141.49" y2="145.46"/><path class="cls-6" d="M218.14,92.9l3.71-7.19a.78.78,0,0,0-1.15-1c-7.82,5.79-29.74,17.53-55,6.76-14.39-6.13-23.55-3.83-29.47-2.43a7.21,7.21,0,0,0-5.45,8l1.76,12.5.67,4.84h0l.22-1c1.64-5.44,9.56-6.45,21.69-4.1l.1,0c4,.78,8.69,1.46,13.4,3.4,28.95,12,55.42-8.32,60.39-12.47a.77.77,0,0,0-.12-1.27Z"/></g></g></svg>