<svg xmlns="http://www.w3.org/2000/svg" xmlns:xlink="http://www.w3.org/1999/xlink" width="1018.977" height="534.822" viewBox="0 0 1018.977 534.822">
  <defs>
    <clipPath id="clip-path">
      <rect id="Rechteck_311" data-name="Rechteck 311" width="1018.977" height="534.822" transform="translate(1015 605)" fill="#fff" stroke="#707070" stroke-width="1"/>
    </clipPath>
  </defs>
  <g id="Gruppe_maskieren_4" data-name="Gruppe maskieren 4" transform="translate(2033.977 1139.822) rotate(180)" opacity="0.4" clip-path="url(#clip-path)">
    <g id="Gruppe_1647" data-name="Gruppe 1647" transform="translate(970.174 998.765) rotate(-22)">
      <line id="Linie_1200" data-name="Linie 1200" y1="45.82" x2="106.195" transform="matrix(0.899, -0.438, 0.438, 0.899, 1009.249, 156.495)" fill="none" stroke="#699eba" stroke-miterlimit="10" stroke-width="1"/>
      <line id="Linie_1201" data-name="Linie 1201" x1="56.757" y2="76.81" transform="matrix(0.899, -0.438, 0.438, 0.899, 995.664, 128.642)" fill="none" stroke="#699eba" stroke-miterlimit="10" stroke-width="1"/>
      <line id="Linie_1202" data-name="Linie 1202" x1="89.901" y1="34.965" transform="matrix(0.899, -0.438, 0.438, 0.899, 1029.335, 197.678)" fill="none" stroke="#699eba" stroke-miterlimit="10" stroke-width="1"/>
      <line id="Linie_1203" data-name="Linie 1203" x1="52.342" y2="128.833" transform="matrix(0.899, -0.438, 0.438, 0.899, 982.29, 220.623)" fill="none" stroke="#699eba" stroke-miterlimit="10" stroke-width="1"/>
      <line id="Linie_1204" data-name="Linie 1204" x2="28.144" y2="41.753" transform="matrix(0.899, -0.438, 0.438, 0.899, 985.736, 172.488)" fill="none" stroke="#699eba" stroke-miterlimit="10" stroke-width="1"/>
      <line id="Linie_1205" data-name="Linie 1205" x1="17.539" y1="101.437" transform="matrix(0.899, -0.438, 0.438, 0.899, 986.445, 20.278)" fill="none" stroke="#699eba" stroke-miterlimit="10" stroke-width="1"/>
      <line id="Linie_1206" data-name="Linie 1206" x1="46.259" y1="57.288" transform="matrix(0.899, -0.438, 0.438, 0.899, 986.445, 20.278)" fill="none" stroke="#699eba" stroke-miterlimit="10" stroke-width="1"/>
      <line id="Linie_1207" data-name="Linie 1207" y1="135.858" x2="69.305" transform="matrix(0.899, -0.438, 0.438, 0.899, 924.154, 50.66)" fill="none" stroke="#699eba" stroke-miterlimit="10" stroke-width="1"/>
      <line id="Linie_1208" data-name="Linie 1208" y1="87.822" x2="112.556" transform="matrix(0.899, -0.438, 0.438, 0.899, 885.281, 69.62)" fill="none" stroke="#699eba" stroke-miterlimit="10" stroke-width="1"/>
      <line id="Linie_1209" data-name="Linie 1209" x1="20.486" y2="132.59" transform="matrix(0.899, -0.438, 0.438, 0.899, 905.366, 157.534)" fill="none" stroke="#699eba" stroke-miterlimit="10" stroke-width="1"/>
      <line id="Linie_1210" data-name="Linie 1210" x1="135.887" y2="62.648" transform="matrix(0.899, -0.438, 0.438, 0.899, 801.645, 208.123)" fill="none" stroke="#699eba" stroke-miterlimit="10" stroke-width="1"/>
      <line id="Linie_1211" data-name="Linie 1211" x1="123.727" y1="1.027" transform="matrix(0.899, -0.438, 0.438, 0.899, 812.124, 201.869)" fill="none" stroke="#699eba" stroke-miterlimit="10" stroke-width="1"/>
      <line id="Linie_1212" data-name="Linie 1212" x1="168.921" y1="49.699" transform="matrix(0.899, -0.438, 0.438, 0.899, 812.124, 201.869)" fill="none" stroke="#699eba" stroke-miterlimit="10" stroke-width="1"/>
      <line id="Linie_1213" data-name="Linie 1213" y1="63.675" x2="12.16" transform="matrix(0.899, -0.438, 0.438, 0.899, 801.194, 207.2)" fill="none" stroke="#699eba" stroke-miterlimit="10" stroke-width="1"/>
      <line id="Linie_1214" data-name="Linie 1214" x1="65.68" y2="83.917" transform="matrix(0.899, -0.438, 0.438, 0.899, 926.703, 201.281)" fill="none" stroke="#699eba" stroke-miterlimit="10" stroke-width="1"/>
      <line id="Linie_1215" data-name="Linie 1215" x2="115.401" y2="69.942" transform="matrix(0.899, -0.438, 0.438, 0.899, 829.108, 264.431)" fill="none" stroke="#699eba" stroke-miterlimit="10" stroke-width="1"/>
      <line id="Linie_1216" data-name="Linie 1216" y1="41.187" x2="84.474" transform="matrix(0.899, -0.438, 0.438, 0.899, 887.565, 313.736)" fill="none" stroke="#699eba" stroke-miterlimit="10" stroke-width="1"/>
      <line id="Linie_1217" data-name="Linie 1217" x1="30.927" y1="111.128" transform="matrix(0.899, -0.438, 0.438, 0.899, 829.108, 264.431)" fill="none" stroke="#699eba" stroke-miterlimit="10" stroke-width="1"/>
      <line id="Linie_1218" data-name="Linie 1218" x2="112.011" y2="23.073" transform="matrix(0.899, -0.438, 0.438, 0.899, 718.318, 292.796)" fill="none" stroke="#699eba" stroke-miterlimit="10" stroke-width="1"/>
      <line id="Linie_1219" data-name="Linie 1219" y1="41.596" x2="56.301" transform="matrix(0.899, -0.438, 0.438, 0.899, 700.084, 255.41)" fill="none" stroke="#699eba" stroke-miterlimit="10" stroke-width="1"/>
      <line id="Linie_1220" data-name="Linie 1220" x1="137.919" y1="10.696" transform="matrix(0.899, -0.438, 0.438, 0.899, 589.669, 343.641)" fill="none" stroke="#699eba" stroke-miterlimit="10" stroke-width="1"/>
      <line id="Linie_1221" data-name="Linie 1221" x1="55.71" y1="64.668" transform="matrix(0.899, -0.438, 0.438, 0.899, 750.687, 230.729)" fill="none" stroke="#699eba" stroke-miterlimit="10" stroke-width="1"/>
      <line id="Linie_1222" data-name="Linie 1222" x2="142.938" y2="134.201" transform="matrix(0.899, -0.438, 0.438, 0.899, 718.318, 292.796)" fill="none" stroke="#699eba" stroke-miterlimit="10" stroke-width="1"/>
      <line id="Linie_1223" data-name="Linie 1223" x2="143.497" y2="31.242" transform="matrix(0.899, -0.438, 0.438, 0.899, 763.586, 386.883)" fill="none" stroke="#699eba" stroke-miterlimit="10" stroke-width="1"/>
      <line id="Linie_1224" data-name="Linie 1224" y1="53.336" x2="72.013" transform="matrix(0.899, -0.438, 0.438, 0.899, 840.896, 382.323)" fill="none" stroke="#699eba" stroke-miterlimit="10" stroke-width="1"/>
      <line id="Linie_1225" data-name="Linie 1225" x2="77.971" y2="77.276" transform="matrix(0.899, -0.438, 0.438, 0.899, 864.277, 430.261)" fill="none" stroke="#699eba" stroke-miterlimit="10" stroke-width="1"/>
      <line id="Linie_1226" data-name="Linie 1226" x2="5.959" y2="130.613" transform="matrix(0.899, -0.438, 0.438, 0.899, 905.62, 350.755)" fill="none" stroke="#699eba" stroke-miterlimit="10" stroke-width="1"/>
      <line id="Linie_1227" data-name="Linie 1227" x1="119.998" y2="85.131" transform="matrix(0.899, -0.438, 0.438, 0.899, 930.914, 389.021)" fill="none" stroke="#699eba" stroke-miterlimit="10" stroke-width="1"/>
      <line id="Linie_1228" data-name="Linie 1228" x1="71.484" y1="84.579" transform="matrix(0.899, -0.438, 0.438, 0.899, 762.95, 385.579)" fill="none" stroke="#699eba" stroke-miterlimit="10" stroke-width="1"/>
      <line id="Linie_1229" data-name="Linie 1229" x1="0.559" y2="102.959" transform="matrix(0.899, -0.438, 0.438, 0.899, 717.816, 293.04)" fill="none" stroke="#699eba" stroke-miterlimit="10" stroke-width="1"/>
      <line id="Linie_1230" data-name="Linie 1230" x1="88.338" y2="58.318" transform="matrix(0.899, -0.438, 0.438, 0.899, 638.92, 331.52)" fill="none" stroke="#699eba" stroke-miterlimit="10" stroke-width="1"/>
      <line id="Linie_1231" data-name="Linie 1231" x1="87.779" y1="44.64" transform="matrix(0.899, -0.438, 0.438, 0.899, 664.485, 383.937)" fill="none" stroke="#699eba" stroke-miterlimit="10" stroke-width="1"/>
      <line id="Linie_1232" data-name="Linie 1232" x1="50.366" y2="99.53" transform="matrix(0.899, -0.438, 0.438, 0.899, 717.682, 407.658)" fill="none" stroke="#699eba" stroke-miterlimit="10" stroke-width="1"/>
      <line id="Linie_1233" data-name="Linie 1233" x1="121.85" y2="14.951" transform="matrix(0.899, -0.438, 0.438, 0.899, 754.759, 483.677)" fill="none" stroke="#699eba" stroke-miterlimit="10" stroke-width="1"/>
      <line id="Linie_1234" data-name="Linie 1234" y1="130.048" x2="52.823" transform="matrix(0.899, -0.438, 0.438, 0.899, 542.191, 366.797)" fill="none" stroke="#699eba" stroke-miterlimit="10" stroke-width="1"/>
      <line id="Linie_1235" data-name="Linie 1235" x1="49.58" y1="69.015" transform="matrix(0.899, -0.438, 0.438, 0.899, 589.669, 343.641)" fill="none" stroke="#699eba" stroke-miterlimit="10" stroke-width="1"/>
      <line id="Linie_1236" data-name="Linie 1236" x2="37.414" y2="144.17" transform="matrix(0.899, -0.438, 0.438, 0.899, 664.485, 383.937)" fill="none" stroke="#699eba" stroke-miterlimit="10" stroke-width="1"/>
      <line id="Linie_1237" data-name="Linie 1237" x1="102.404" y2="61.033" transform="matrix(0.899, -0.438, 0.438, 0.899, 572.446, 428.828)" fill="none" stroke="#699eba" stroke-miterlimit="10" stroke-width="1"/>
      <line id="Linie_1238" data-name="Linie 1238" x1="121.631" y2="170.493" transform="matrix(0.899, -0.438, 0.438, 0.899, 524.462, 330.446)" fill="none" stroke="#699eba" stroke-miterlimit="10" stroke-width="1"/>
      <line id="Linie_1239" data-name="Linie 1239" x1="121.631" y2="170.493" transform="matrix(0.899, -0.438, 0.438, 0.899, 524.462, 330.446)" fill="none" stroke="#699eba" stroke-miterlimit="10" stroke-width="1"/>
      <line id="Linie_1240" data-name="Linie 1240" x2="69.111" y2="51.141" transform="matrix(0.899, -0.438, 0.438, 0.899, 633.783, 277.126)" fill="none" stroke="#699eba" stroke-miterlimit="10" stroke-width="1"/>
      <line id="Linie_1241" data-name="Linie 1241" x1="211.935" y1="77.799" transform="matrix(0.899, -0.438, 0.438, 0.899, 439.894, 406.918)" fill="none" stroke="#699eba" stroke-miterlimit="10" stroke-width="1"/>
      <line id="Linie_1242" data-name="Linie 1242" x1="162.355" y1="8.784" transform="matrix(0.899, -0.438, 0.438, 0.899, 439.894, 406.918)" fill="none" stroke="#699eba" stroke-miterlimit="10" stroke-width="1"/>
      <line id="Linie_1243" data-name="Linie 1243" x2="55.98" y2="99.215" transform="matrix(0.899, -0.438, 0.438, 0.899, 346.087, 342.284)" fill="none" stroke="#699eba" stroke-miterlimit="10" stroke-width="1"/>
      <line id="Linie_1244" data-name="Linie 1244" x2="165.512" y2="238.047" transform="matrix(0.899, -0.438, 0.438, 0.899, 346.087, 342.284)" fill="none" stroke="#699eba" stroke-miterlimit="10" stroke-width="1"/>
      <path id="Pfad_608" data-name="Pfad 608" d="M30.477,101.464l-2.5-8.33L1.145,3.8,0,0" transform="matrix(0.899, -0.438, 0.438, 0.899, 346.09, 342.283)" fill="none" stroke="#699eba" stroke-miterlimit="10" stroke-width="1"/>
      <line id="Linie_1245" data-name="Linie 1245" x1="109.532" y1="138.832" transform="matrix(0.899, -0.438, 0.438, 0.899, 439.894, 406.918)" fill="none" stroke="#699eba" stroke-miterlimit="10" stroke-width="1"/>
      <path id="Pfad_609" data-name="Pfad 609" d="M109.883,106.783a2.585,2.585,0,0,0-.688.263,4,4,0,0,0-1.407,1.188L0,31.028,21.816,7.542a3.928,3.928,0,0,0,4.516.605,3.887,3.887,0,0,0,2.107-3.835L77.8,0Z" transform="matrix(0.899, -0.438, 0.438, 0.899, 348.038, 454.22)" fill="none" stroke="#699eba" stroke-miterlimit="10" stroke-width="1"/>
      <path id="Pfad_610" data-name="Pfad 610" d="M111.851,80.137,3.194,2.294,0,0" transform="matrix(0.899, -0.438, 0.438, 0.899, 225.98, 459.112)" fill="none" stroke="#699eba" stroke-miterlimit="10" stroke-width="1"/>
      <line id="Linie_1246" data-name="Linie 1246" x2="215.135" y2="46.864" transform="matrix(0.899, -0.438, 0.438, 0.899, 225.988, 459.106)" fill="none" stroke="#699eba" stroke-miterlimit="10" stroke-width="1"/>
      <line id="Linie_1247" data-name="Linie 1247" y1="52.351" x2="159.155" transform="matrix(0.899, -0.438, 0.438, 0.899, 203.039, 412.053)" fill="none" stroke="#699eba" stroke-miterlimit="10" stroke-width="1"/>
      <line id="Linie_1248" data-name="Linie 1248" y1="52.351" x2="159.155" transform="matrix(0.899, -0.438, 0.438, 0.899, 203.039, 412.053)" fill="none" stroke="#699eba" stroke-miterlimit="10" stroke-width="1"/>
      <line id="Linie_1249" data-name="Linie 1249" y1="39.223" x2="48.471" transform="matrix(0.899, -0.438, 0.438, 0.899, 208.794, 423.852)" fill="none" stroke="#699eba" stroke-miterlimit="10" stroke-width="1"/>
      <line id="Linie_1250" data-name="Linie 1250" x2="104.538" y2="27.058" transform="matrix(0.899, -0.438, 0.438, 0.899, 146.539, 424.111)" fill="none" stroke="#699eba" stroke-miterlimit="10" stroke-width="1"/>
      <line id="Linie_1251" data-name="Linie 1251" x2="56.068" y2="66.281" transform="matrix(0.899, -0.438, 0.438, 0.899, 146.539, 424.111)" fill="none" stroke="#699eba" stroke-miterlimit="10" stroke-width="1"/>
      <line id="Linie_1252" data-name="Linie 1252" x1="41.664" y2="136.407" transform="matrix(0.899, -0.438, 0.438, 0.899, 109.092, 442.375)" fill="none" stroke="#699eba" stroke-miterlimit="10" stroke-width="1"/>
      <line id="Linie_1253" data-name="Linie 1253" x1="22.799" y2="106.102" transform="matrix(0.899, -0.438, 0.438, 0.899, 325.595, 352.279)" fill="none" stroke="#699eba" stroke-miterlimit="10" stroke-width="1"/>
      <path id="Pfad_611" data-name="Pfad 611" d="M0,2.242,21.576.329,25.506,0" transform="matrix(0.899, -0.438, 0.438, 0.899, 416.979, 418.103)" fill="none" stroke="#699eba" stroke-miterlimit="10" stroke-width="1"/>
      <line id="Linie_1254" data-name="Linie 1254" x2="65.531" y2="120.021" transform="matrix(0.899, -0.438, 0.438, 0.899, 260.595, 368.496)" fill="none" stroke="#699eba" stroke-miterlimit="10" stroke-width="1"/>
      <line id="Linie_1255" data-name="Linie 1255" x2="126.893" y2="0.012" transform="matrix(0.899, -0.438, 0.438, 0.899, 146.539, 424.111)" fill="none" stroke="#699eba" stroke-miterlimit="10" stroke-width="1"/>
      <line id="Linie_1256" data-name="Linie 1256" x1="135.038" y1="54.785" transform="matrix(0.899, -0.438, 0.438, 0.899, 0, 435.621)" fill="none" stroke="#699eba" stroke-miterlimit="10" stroke-width="1"/>
      <line id="Linie_1257" data-name="Linie 1257" y1="13.127" x2="110.685" transform="matrix(0.899, -0.438, 0.438, 0.899, 246.604, 390.805)" fill="none" stroke="#699eba" stroke-miterlimit="10" stroke-width="1"/>
      <line id="Linie_1258" data-name="Linie 1258" y1="27.046" x2="22.355" transform="matrix(0.899, -0.438, 0.438, 0.899, 240.503, 378.295)" fill="none" stroke="#699eba" stroke-miterlimit="10" stroke-width="1"/>
      <line id="Linie_1259" data-name="Linie 1259" x1="88.33" y1="13.918" transform="matrix(0.899, -0.438, 0.438, 0.899, 260.595, 368.496)" fill="none" stroke="#699eba" stroke-miterlimit="10" stroke-width="1"/>
      <line id="Linie_1260" data-name="Linie 1260" x2="125.956" y2="45.481" transform="matrix(0.899, -0.438, 0.438, 0.899, 905.62, 350.755)" fill="none" stroke="#699eba" stroke-miterlimit="10" stroke-width="1"/>
      <line id="Linie_1261" data-name="Linie 1261" x2="156.883" y2="156.61" transform="matrix(0.899, -0.438, 0.438, 0.899, 829.108, 264.431)" fill="none" stroke="#699eba" stroke-miterlimit="10" stroke-width="1"/>
      <line id="Linie_1262" data-name="Linie 1262" x2="41.482" y2="86.668" transform="matrix(0.899, -0.438, 0.438, 0.899, 963.49, 276.705)" fill="none" stroke="#699eba" stroke-miterlimit="10" stroke-width="1"/>
      <line id="Linie_1263" data-name="Linie 1263" x1="122.583" y1="22.143" transform="matrix(0.899, -0.438, 0.438, 0.899, 963.49, 276.705)" fill="none" stroke="#699eba" stroke-miterlimit="10" stroke-width="1"/>
      <line id="Linie_1264" data-name="Linie 1264" x1="28.759" y1="64.308" transform="matrix(0.899, -0.438, 0.438, 0.899, 1029.335, 197.678)" fill="none" stroke="#699eba" stroke-miterlimit="10" stroke-width="1"/>
      <line id="Linie_1265" data-name="Linie 1265" y1="34.421" x2="86.844" transform="matrix(0.899, -0.438, 0.438, 0.899, 968.622, 141.831)" fill="none" stroke="#699eba" stroke-miterlimit="10" stroke-width="1"/>
      <path id="Pfad_612" data-name="Pfad 612" d="M7.5,2.184A3.961,3.961,0,1,1,2.182.423,3.96,3.96,0,0,1,7.5,2.184Z" transform="matrix(0.899, -0.438, 0.438, 0.899, 981.148, 18.454)" fill="#699eba"/>
      <path id="Pfad_613" data-name="Pfad 613" d="M7.807,3.013A3.961,3.961,0,1,1,3.012.117,3.958,3.958,0,0,1,7.807,3.013Z" transform="matrix(0.899, -0.438, 0.438, 0.899, 980.437, 170.664)" fill="#699eba" stroke="#699eba" stroke-width="1"/>
      <path id="Pfad_614" data-name="Pfad 614" d="M7.807,3.012A3.961,3.961,0,1,1,3.012.116,3.956,3.956,0,0,1,7.807,3.012Z" transform="matrix(0.899, -0.438, 0.438, 0.899, 1024.036, 195.854)" fill="#699eba"/>
      <path id="Pfad_615" data-name="Pfad 615" d="M7.808,3.012a3.961,3.961,0,1,1-4.8-2.9A3.958,3.958,0,0,1,7.808,3.012Z" transform="matrix(0.899, -0.438, 0.438, 0.899, 958.192, 274.88)" fill="#699eba"/>
      <path id="Pfad_616" data-name="Pfad 616" d="M7.808,3.012a3.961,3.961,0,1,1-4.8-2.9A3.961,3.961,0,0,1,7.808,3.012Z" transform="matrix(0.899, -0.438, 0.438, 0.899, 900.323, 348.93)" fill="#699eba"/>
      <path id="Pfad_617" data-name="Pfad 617" d="M7.188,1.663A3.961,3.961,0,1,1,1.664.734,3.963,3.963,0,0,1,7.188,1.663Z" transform="matrix(0.899, -0.438, 0.438, 0.899, 823.811, 262.606)" fill="#699eba"/>
      <path id="Pfad_618" data-name="Pfad 618" d="M7.186,1.663A3.961,3.961,0,1,1,1.663.734,3.956,3.956,0,0,1,7.186,1.663Z" transform="matrix(0.899, -0.438, 0.438, 0.899, 745.391, 228.906)" fill="#699eba"/>
      <path id="Pfad_619" data-name="Pfad 619" d="M7.186,1.663A3.961,3.961,0,1,1,1.663.734,3.965,3.965,0,0,1,7.186,1.663Z" transform="matrix(0.899, -0.438, 0.438, 0.899, 806.828, 200.044)" fill="#699eba"/>
      <path id="Pfad_620" data-name="Pfad 620" d="M7.807,3.012A3.961,3.961,0,1,1,3.012.116,3.959,3.959,0,0,1,7.807,3.012Z" transform="matrix(0.899, -0.438, 0.438, 0.899, 918.481, 146.73)" fill="#699eba"/>
      <path id="Pfad_621" data-name="Pfad 621" d="M7.808,3.01A3.961,3.961,0,1,1,3.01.117,3.965,3.965,0,0,1,7.808,3.01Z" transform="matrix(0.899, -0.438, 0.438, 0.899, 858.98, 428.437)" fill="#699eba"/>
      <path id="Pfad_622" data-name="Pfad 622" d="M7.807,3.012A3.961,3.961,0,1,1,3.012.116,3.956,3.956,0,0,1,7.807,3.012Z" transform="matrix(0.899, -0.438, 0.438, 0.899, 757.651, 383.755)" fill="#699eba"/>
      <path id="Pfad_623" data-name="Pfad 623" d="M7.808,3.012a3.961,3.961,0,1,1-4.8-2.9A3.958,3.958,0,0,1,7.808,3.012Z" transform="matrix(0.899, -0.438, 0.438, 0.899, 713.021, 290.971)" fill="#699eba"/>
      <path id="Pfad_624" data-name="Pfad 624" d="M7.808,3.013A3.961,3.961,0,1,1,3.013.117,3.958,3.958,0,0,1,7.808,3.013Z" transform="matrix(0.899, -0.438, 0.438, 0.899, 584.371, 341.817)" fill="#699eba"/>
      <path id="Pfad_625" data-name="Pfad 625" d="M7.807,3.012A3.961,3.961,0,1,1,3.012.116,3.956,3.956,0,0,1,7.807,3.012Z" transform="matrix(0.899, -0.438, 0.438, 0.899, 628.484, 275.302)" fill="#699eba"/>
      <path id="Pfad_626" data-name="Pfad 626" d="M7.478,2.138A3.962,3.962,0,1,1,2.138.446,3.961,3.961,0,0,1,7.478,2.138Z" transform="matrix(0.899, -0.438, 0.438, 0.899, 434.596, 405.093)" fill="#699eba"/>
      <path id="Pfad_627" data-name="Pfad 627" d="M7.478,2.135A3.962,3.962,0,1,1,2.138.446,3.959,3.959,0,0,1,7.478,2.135Z" transform="matrix(0.899, -0.438, 0.438, 0.899, 340.789, 340.462)" fill="#699eba"/>
      <path id="Pfad_628" data-name="Pfad 628" d="M7.478,2.135A3.962,3.962,0,1,1,2.138.446,3.959,3.959,0,0,1,7.478,2.135Z" transform="matrix(0.899, -0.438, 0.438, 0.899, 255.297, 366.673)" fill="#699eba"/>
      <path id="Pfad_629" data-name="Pfad 629" d="M7.478,2.135A3.962,3.962,0,1,1,2.138.446,3.961,3.961,0,0,1,7.478,2.135Z" transform="matrix(0.899, -0.438, 0.438, 0.899, 247.061, 400.78)" fill="#699eba"/>
      <path id="Pfad_630" data-name="Pfad 630" d="M7.478,2.135A3.962,3.962,0,1,1,2.138.446,3.961,3.961,0,0,1,7.478,2.135Z" transform="matrix(0.899, -0.438, 0.438, 0.899, 140.089, 423.841)" fill="#699eba"/>
      <path id="Pfad_631" data-name="Pfad 631" d="M7.807,3.013A3.961,3.961,0,1,1,3.012.117,3.96,3.96,0,0,1,7.807,3.013Z" transform="matrix(0.899, -0.438, 0.438, 0.899, 659.188, 382.112)" fill="#699eba"/>
      <line id="Linie_1266" data-name="Linie 1266" y1="44.149" x2="28.719" transform="matrix(0.899, -0.438, 0.438, 0.899, 1027.323, 64.08)" fill="none" stroke="#699eba" stroke-miterlimit="10" stroke-width="1"/>
      <line id="Linie_1267" data-name="Linie 1267" x2="49.438" y2="30.99" transform="matrix(0.899, -0.438, 0.438, 0.899, 1046.677, 103.761)" fill="none" stroke="#699eba" stroke-miterlimit="10" stroke-width="1"/>
      <line id="Linie_1268" data-name="Linie 1268" x2="139.817" y2="83.137" transform="matrix(0.899, -0.438, 0.438, 0.899, 599.201, 483.684)" fill="none" stroke="#699eba" stroke-miterlimit="10" stroke-width="1"/>
      <line id="Linie_1269" data-name="Linie 1269" x1="1.137" y1="3.768" transform="matrix(0.899, -0.438, 0.438, 0.899, 493.61, 502.027)" fill="none" stroke="#699eba" stroke-miterlimit="10" stroke-width="1"/>
      <path id="Pfad_632" data-name="Pfad 632" d="M0,0,3.868.762l6.607,1.307,91.334,23.964" transform="matrix(0.899, -0.438, 0.438, 0.899, 496.283, 504.915)" fill="none" stroke="#699eba" stroke-miterlimit="10" stroke-width="1"/>
      <line id="Linie_1270" data-name="Linie 1270" x1="127.698" y1="91.05" transform="matrix(0.899, -0.438, 0.438, 0.899, 496.283, 504.915)" fill="none" stroke="#699eba" stroke-miterlimit="10" stroke-width="1"/>
      <line id="Linie_1271" data-name="Linie 1271" x2="113.929" y2="18.121" transform="matrix(0.899, -0.438, 0.438, 0.899, 650.971, 530.771)" fill="none" stroke="#699eba" stroke-miterlimit="10" stroke-width="1"/>
      <line id="Linie_1272" data-name="Linie 1272" x1="158.301" y2="76.825" transform="matrix(0.899, -0.438, 0.438, 0.899, 508.691, 600.166)" fill="none" stroke="#699eba" stroke-miterlimit="10" stroke-width="1"/>
      <line id="Linie_1273" data-name="Linie 1273" x1="3.232" y1="2.317" transform="matrix(0.899, -0.438, 0.438, 0.899, 492.363, 504.249)" fill="none" stroke="#699eba" stroke-miterlimit="10" stroke-width="1"/>
      <line id="Linie_1274" data-name="Linie 1274" x1="97.731" y2="70.126" transform="matrix(0.899, -0.438, 0.438, 0.899, 138.148, 501.948)" fill="none" stroke="#699eba" stroke-miterlimit="10" stroke-width="1"/>
      <line id="Linie_1275" data-name="Linie 1275" x2="23.154" y2="190.621" transform="matrix(0.899, -0.438, 0.438, 0.899, 225.988, 459.106)" fill="none" stroke="#699eba" stroke-miterlimit="10" stroke-width="1"/>
      <line id="Linie_1276" data-name="Linie 1276" x1="48.544" y2="67.272" transform="matrix(0.899, -0.438, 0.438, 0.899, 300.871, 559.821)" fill="none" stroke="#699eba" stroke-miterlimit="10" stroke-width="1"/>
      <line id="Linie_1277" data-name="Linie 1277" x2="107.652" y2="40.425" transform="matrix(0.899, -0.438, 0.438, 0.899, 215.883, 631.143)" fill="none" stroke="#699eba" stroke-miterlimit="10" stroke-width="1"/>
      <line id="Linie_1278" data-name="Linie 1278" x1="2.691" y2="2.899" transform="matrix(0.899, -0.438, 0.438, 0.899, 369.682, 448.829)" fill="none" stroke="#699eba" stroke-miterlimit="10" stroke-width="1"/>
      <path id="Pfad_633" data-name="Pfad 633" d="M40.14,0,2.691,40.3,0,43.2" transform="matrix(0.899, -0.438, 0.438, 0.899, 325.562, 499.703)" fill="none" stroke="#699eba" stroke-miterlimit="10" stroke-width="1"/>
      <line id="Linie_1279" data-name="Linie 1279" x1="169.429" y1="53.223" transform="matrix(0.899, -0.438, 0.438, 0.899, 168.889, 564.977)" fill="none" stroke="#699eba" stroke-miterlimit="10" stroke-width="1"/>
      <line id="Linie_1280" data-name="Linie 1280" x1="3.93" y2="0.329" transform="matrix(0.899, -0.438, 0.438, 0.899, 371.956, 447.354)" fill="none" stroke="#699eba" stroke-miterlimit="10" stroke-width="1"/>
      <line id="Linie_1281" data-name="Linie 1281" x2="151.158" y2="36.32" transform="matrix(0.899, -0.438, 0.438, 0.899, 344.502, 538.541)" fill="none" stroke="#699eba" stroke-miterlimit="10" stroke-width="1"/>
      <line id="Linie_1282" data-name="Linie 1282" y1="84.206" x2="156.605" transform="matrix(0.899, -0.438, 0.438, 0.899, 355.528, 573.573)" fill="none" stroke="#699eba" stroke-miterlimit="10" stroke-width="1"/>
      <line id="Linie_1283" data-name="Linie 1283" x2="126.004" y2="83.663" transform="matrix(0.899, -0.438, 0.438, 0.899, 392.442, 649.257)" fill="none" stroke="#699eba" stroke-miterlimit="10" stroke-width="1"/>
      <line id="Linie_1284" data-name="Linie 1284" x2="212.561" y2="29.863" transform="matrix(0.899, -0.438, 0.438, 0.899, 338.229, 735.556)" fill="none" stroke="#699eba" stroke-miterlimit="10" stroke-width="1"/>
      <line id="Linie_1285" data-name="Linie 1285" x1="30.601" y2="167.869" transform="matrix(0.899, -0.438, 0.438, 0.899, 468.78, 518.336)" fill="none" stroke="#699eba" stroke-miterlimit="10" stroke-width="1"/>
      <line id="Linie_1286" data-name="Linie 1286" y1="120.526" x2="5.447" transform="matrix(0.899, -0.438, 0.438, 0.899, 339.606, 540.929)" fill="none" stroke="#699eba" stroke-miterlimit="10" stroke-width="1"/>
      <line id="Linie_1287" data-name="Linie 1287" x1="43.097" y1="53.254" transform="matrix(0.899, -0.438, 0.438, 0.899, 330.361, 620.285)" fill="none" stroke="#699eba" stroke-miterlimit="10" stroke-width="1"/>
      <line id="Linie_1288" data-name="Linie 1288" x1="150.749" y1="93.678" transform="matrix(0.899, -0.438, 0.438, 0.899, 215.883, 631.143)" fill="none" stroke="#699eba" stroke-miterlimit="10" stroke-width="1"/>
      <line id="Linie_1289" data-name="Linie 1289" x1="86.557" y2="53.8" transform="matrix(0.899, -0.438, 0.438, 0.899, 314.645, 687.201)" fill="none" stroke="#699eba" stroke-miterlimit="10" stroke-width="1"/>
      <line id="Linie_1290" data-name="Linie 1290" x1="81.101" y2="64.525" transform="matrix(0.899, -0.438, 0.438, 0.899, 1010.481, 278.423)" fill="none" stroke="#699eba" stroke-miterlimit="10" stroke-width="1"/>
      <line id="Linie_1291" data-name="Linie 1291" y1="29.342" x2="61.142" transform="matrix(0.899, -0.438, 0.438, 0.899, 1070.511, 216.498)" fill="none" stroke="#699eba" stroke-miterlimit="10" stroke-width="1"/>
      <path id="Pfad_634" data-name="Pfad 634" d="M7.807,3.012A3.961,3.961,0,1,1,3.012.116,3.956,3.956,0,0,1,7.807,3.012Z" transform="matrix(0.899, -0.438, 0.438, 0.899, 1041.378, 101.936)" fill="#699eba"/>
      <path id="Pfad_635" data-name="Pfad 635" d="M7.807,3.013A3.961,3.961,0,1,1,3.012.117,3.958,3.958,0,0,1,7.807,3.013Z" transform="matrix(0.899, -0.438, 0.438, 0.899, 1034.162, 333.74)" fill="#699eba"/>
      <path id="Pfad_636" data-name="Pfad 636" d="M7.807,3.013A3.961,3.961,0,1,1,3.012.117,3.958,3.958,0,0,1,7.807,3.013Z" transform="matrix(0.899, -0.438, 0.438, 0.899, 1078.076, 241.047)" fill="#699eba"/>
      <path id="Pfad_637" data-name="Pfad 637" d="M7.808,3.012A3.961,3.961,0,1,1,3.013.116,3.958,3.958,0,0,1,7.808,3.012Z" transform="matrix(0.899, -0.438, 0.438, 0.899, 962.935, 463.711)" fill="#699eba"/>
      <path id="Pfad_638" data-name="Pfad 638" d="M7.9,3.634A3.887,3.887,0,0,1,5.788,7.468a3.928,3.928,0,0,1-4.516-.605A3.6,3.6,0,0,1,.457,5.785,3.89,3.89,0,0,1,2.086.506c.022-.041.022-.041.054-.048A4.009,4.009,0,0,1,4.786.081,3.867,3.867,0,0,1,7.5,2.131,3.708,3.708,0,0,1,7.9,3.634Z" transform="matrix(0.899, -0.438, 0.438, 0.899, 366.801, 445.825)" fill="#699eba"/>
      <path id="Pfad_639" data-name="Pfad 639" d="M7.478,2.135A3.962,3.962,0,1,1,2.138.446,3.964,3.964,0,0,1,7.478,2.135Z" transform="matrix(0.899, -0.438, 0.438, 0.899, 220.69, 457.282)" fill="#699eba"/>
      <path id="Pfad_640" data-name="Pfad 640" d="M7.478,2.138A3.962,3.962,0,1,1,2.135.446,3.96,3.96,0,0,1,7.478,2.138Z" transform="matrix(0.899, -0.438, 0.438, 0.899, 339.205, 536.715)" fill="#699eba"/>
      <path id="Pfad_641" data-name="Pfad 641" d="M7.478,2.138A3.962,3.962,0,1,1,2.138.446,3.959,3.959,0,0,1,7.478,2.138Z" transform="matrix(0.899, -0.438, 0.438, 0.899, 325.062, 618.46)" fill="#699eba"/>
      <path id="Pfad_642" data-name="Pfad 642" d="M7.82,4.708A3.853,3.853,0,0,1,3.259,7.83,3.893,3.893,0,0,1,.493,5.824C.455,5.8.455,5.8.448,5.77A3.917,3.917,0,0,1,.109,3.016,4.155,4.155,0,0,1,.721,1.631,4,4,0,0,1,2.128.443,2.584,2.584,0,0,1,2.816.18,3.9,3.9,0,0,1,7.455,2.122,3.846,3.846,0,0,1,7.82,4.708Z" transform="matrix(0.899, -0.438, 0.438, 0.899, 491.001, 503.1)" fill="#699eba"/>
      <path id="Pfad_643" data-name="Pfad 643" d="M7.478,2.138A3.962,3.962,0,1,1,2.138.446,3.961,3.961,0,0,1,7.478,2.138Z" transform="matrix(0.899, -0.438, 0.438, 0.899, 537.071, 667.392)" fill="#699eba"/>
      <path id="Pfad_644" data-name="Pfad 644" d="M7.478,2.135A3.962,3.962,0,1,1,2.135.446,3.963,3.963,0,0,1,7.478,2.135Z" transform="matrix(0.899, -0.438, 0.438, 0.899, 387.145, 647.433)" fill="#699eba"/>
      <path id="Pfad_645" data-name="Pfad 645" d="M7.807,3.012A3.961,3.961,0,1,1,3.012.116,3.958,3.958,0,0,1,7.807,3.012Z" transform="matrix(0.899, -0.438, 0.438, 0.899, 755.234, 494.355)" fill="#699eba"/>
      <path id="Pfad_646" data-name="Pfad 646" d="M7.808,3.012a3.961,3.961,0,1,1-4.8-2.9A3.966,3.966,0,0,1,7.808,3.012Z" transform="matrix(0.899, -0.438, 0.438, 0.899, 645.673, 528.946)" fill="#699eba"/>
      <path id="Pfad_647" data-name="Pfad 647" d="M7.807,3.012A3.961,3.961,0,1,1,3.012.116,3.959,3.959,0,0,1,7.807,3.012Z" transform="matrix(0.899, -0.438, 0.438, 0.899, 593.903, 481.859)" fill="#699eba"/>
    </g>
  </g>
</svg>
