<svg xmlns="http://www.w3.org/2000/svg" xmlns:xlink="http://www.w3.org/1999/xlink" viewBox="0 0 138.3 130.71"><defs><style>.cls-1{opacity:0.4;}.cls-2{fill:url(#Unbenannter_Verlauf_6);}.cls-3{fill:url(#Unbenannter_Verlauf_6-2);}.cls-4{fill:url(#Unbenannter_Verlauf_6-3);}.cls-5{fill:#fff;}.cls-6{fill:#fa001f;}.cls-7{fill:none;stroke:#002b49;stroke-linecap:round;stroke-linejoin:round;stroke-width:2px;}</style><linearGradient id="Unbenannter_Verlauf_6" x1="70.7" y1="130.71" x2="70.7" y2="6.27" gradientUnits="userSpaceOnUse"><stop offset="0" stop-color="#fff" stop-opacity="0"/><stop offset="0.19" stop-color="#d2e2ea" stop-opacity="0.3"/><stop offset="0.38" stop-color="#accad9" stop-opacity="0.55"/><stop offset="0.56" stop-color="#8fb7cc" stop-opacity="0.75"/><stop offset="0.73" stop-color="#7aa9c2" stop-opacity="0.89"/><stop offset="0.88" stop-color="#6da1bc" stop-opacity="0.97"/><stop offset="1" stop-color="#699eba"/></linearGradient><linearGradient id="Unbenannter_Verlauf_6-2" x1="107.73" y1="61.13" x2="107.73" y2="0" xlink:href="#Unbenannter_Verlauf_6"/><linearGradient id="Unbenannter_Verlauf_6-3" x1="49.99" y1="113.21" x2="49.99" y2="13.24" xlink:href="#Unbenannter_Verlauf_6"/></defs><title>datensaetze</title><g id="Ebene_2" data-name="Ebene 2"><g id="Ebene_1-2" data-name="Ebene 1"><g class="cls-1"><circle class="cls-2" cx="70.7" cy="68.49" r="62.22"/></g><g class="cls-1"><circle class="cls-3" cx="107.73" cy="30.57" r="30.57"/></g><g class="cls-1"><circle class="cls-4" cx="49.99" cy="63.22" r="49.99"/></g><circle class="cls-5" cx="75.89" cy="62.22" r="43.84"/><path class="cls-6" d="M75.89,33.72a28.5,28.5,0,1,1-28.5,28.5,28.53,28.53,0,0,1,28.5-28.5m0-4a32.5,32.5,0,1,0,32.5,32.5,32.5,32.5,0,0,0-32.5-32.5Z"/><path class="cls-6" d="M75.89,23.72a38.5,38.5,0,1,1-38.5,38.5,38.54,38.54,0,0,1,38.5-38.5m0-4a42.5,42.5,0,1,0,42.5,42.5,42.5,42.5,0,0,0-42.5-42.5Z"/><path class="cls-6" d="M75.89,43.72a18.5,18.5,0,1,1-18.5,18.5,18.52,18.52,0,0,1,18.5-18.5m0-4a22.5,22.5,0,1,0,22.5,22.5,22.5,22.5,0,0,0-22.5-22.5Z"/><path class="cls-6" d="M75.89,53.72a8.5,8.5,0,1,1-8.5,8.5,8.51,8.51,0,0,1,8.5-8.5m0-4a12.5,12.5,0,1,0,12.5,12.5,12.5,12.5,0,0,0-12.5-12.5Z"/><circle class="cls-6" cx="75.89" cy="62.22" r="2.96"/><line class="cls-7" x1="100.66" y1="100.77" x2="106.89" y2="100.77"/><line class="cls-7" x1="100.44" y1="101.35" x2="100.88" y2="107.56"/><line class="cls-7" x1="104.03" y1="104.14" x2="110.26" y2="104.14"/><line class="cls-7" x1="77.22" y1="77.11" x2="107.54" y2="108.04"/><line class="cls-7" x1="103.81" y1="104.71" x2="104.25" y2="110.92"/><line class="cls-7" x1="76.96" y1="63.84" x2="131.94" y2="57.48"/><line class="cls-7" x1="124.29" y1="58.02" x2="127.94" y2="53.58"/><line class="cls-7" x1="124.27" y1="58.62" x2="125.69" y2="63.06"/><line class="cls-7" x1="128.79" y1="57.68" x2="132.55" y2="53.1"/><line class="cls-7" x1="128.77" y1="58.29" x2="130.23" y2="62.87"/><line class="cls-7" x1="75.89" y1="61.21" x2="111.82" y2="18.34"/><line class="cls-7" x1="105.91" y1="24.53" x2="105.17" y2="16.93"/><line class="cls-7" x1="106.74" y1="25.21" x2="112.64" y2="28.2"/><line class="cls-7" x1="109.25" y1="20.73" x2="108.63" y2="14.24"/><line class="cls-7" x1="109.83" y1="21.26" x2="115.77" y2="24.17"/></g></g></svg>