<svg xmlns="http://www.w3.org/2000/svg" xmlns:xlink="http://www.w3.org/1999/xlink" viewBox="0 0 126.63 125.79"><defs><style>.cls-1{opacity:0.4;}.cls-2{fill:url(#Unbenannter_Verlauf_9);}.cls-3{fill:url(#Unbenannter_Verlauf_15);}.cls-4{fill:url(#Unbenannter_Verlauf_10);}.cls-5{fill:#002b49;}.cls-6{fill:#fff;}.cls-7,.cls-8,.cls-9{fill:none;}.cls-7,.cls-8{stroke:#fa001f;}.cls-7,.cls-9{stroke-linecap:round;}.cls-7{stroke-linejoin:round;}.cls-8,.cls-9{stroke-miterlimit:10;}.cls-9{stroke:#fff;}.cls-10{opacity:0.6;fill:url(#Unbenannter_Verlauf_28);}</style><linearGradient id="Unbenannter_Verlauf_9" x1="55.06" y1="110.11" x2="55.06" gradientUnits="userSpaceOnUse"><stop offset="0" stop-color="#fff" stop-opacity="0"/><stop offset="0.11" stop-color="#f9fbfc" stop-opacity="0.04"/><stop offset="0.27" stop-color="#e8f0f4" stop-opacity="0.16"/><stop offset="0.47" stop-color="#ccdee7" stop-opacity="0.34"/><stop offset="0.7" stop-color="#a5c5d6" stop-opacity="0.6"/><stop offset="0.95" stop-color="#74a5bf" stop-opacity="0.93"/><stop offset="1" stop-color="#699eba"/></linearGradient><linearGradient id="Unbenannter_Verlauf_15" x1="81.38" y1="116.8" x2="81.38" y2="76.09" gradientUnits="userSpaceOnUse"><stop offset="0" stop-color="#fff" stop-opacity="0"/><stop offset="0.13" stop-color="#fbfcfd" stop-opacity="0.03"/><stop offset="0.27" stop-color="#f0f5f8" stop-opacity="0.1"/><stop offset="0.43" stop-color="#dde9ef" stop-opacity="0.23"/><stop offset="0.6" stop-color="#c2d8e3" stop-opacity="0.4"/><stop offset="0.77" stop-color="#a0c2d3" stop-opacity="0.63"/><stop offset="0.94" stop-color="#77a7c1" stop-opacity="0.9"/><stop offset="1" stop-color="#699eba"/></linearGradient><linearGradient id="Unbenannter_Verlauf_10" x1="92.78" y1="94.19" x2="92.78" y2="26.49" gradientUnits="userSpaceOnUse"><stop offset="0" stop-color="#fff" stop-opacity="0"/><stop offset="0.41" stop-color="#c4d9e4" stop-opacity="0.39"/><stop offset="1" stop-color="#699eba"/></linearGradient><linearGradient id="Unbenannter_Verlauf_28" x1="-718.33" y1="123.62" x2="-697.18" y2="123.62" gradientTransform="translate(-1076.75 125.26) rotate(180) scale(1.67 0.72)" gradientUnits="userSpaceOnUse"><stop offset="0" stop-color="#fff" stop-opacity="0"/><stop offset="0.04" stop-color="#ffe7ea" stop-opacity="0.09"/><stop offset="0.16" stop-color="#fda2ad" stop-opacity="0.36"/><stop offset="0.28" stop-color="#fc687b" stop-opacity="0.59"/><stop offset="0.39" stop-color="#fb3b53" stop-opacity="0.77"/><stop offset="0.48" stop-color="#fb1b37" stop-opacity="0.89"/><stop offset="0.56" stop-color="#fa0725" stop-opacity="0.97"/><stop offset="0.62" stop-color="#fa001f"/></linearGradient></defs><title>Interesse</title><g id="Ebene_2" data-name="Ebene 2"><g id="Ebene_1-2" data-name="Ebene 1"><g class="cls-1"><circle class="cls-2" cx="55.06" cy="55.06" r="55.06"/></g><g class="cls-1"><circle class="cls-3" cx="81.38" cy="96.44" r="20.36"/></g><g class="cls-1"><circle class="cls-4" cx="92.78" cy="60.34" r="33.85"/></g><path class="cls-5" d="M52,125.3a2,2,0,0,1-.68-.12,2.16,2.16,0,0,1-1.23-2.27l5.7-33.36a5.68,5.68,0,0,0,0-1.84L51.41,62.78a1,1,0,0,0-1-.82,1,1,0,0,0-1,1l.7,29.1A5.76,5.76,0,0,1,50,93.43l-7.51,30.24A1.67,1.67,0,0,1,40.83,125a1.59,1.59,0,0,1-.43-.06,1.77,1.77,0,0,1-1.24-1.75l-.28-32.7a6.41,6.41,0,0,0-.14-1.31L31.46,54a29.89,29.89,0,0,1,.27-14.3A33.54,33.54,0,0,1,43.11,22.09L65,5.54a3.68,3.68,0,0,1,2.28-.89,5.68,5.68,0,0,1,1.07.13,5.44,5.44,0,0,1,1.36.51l6.33,3.58a1.64,1.64,0,0,0,2-.23c.63-.6,1.84-1.54,3-2.45,1-.79,2-1.54,2.57-2.07A4.79,4.79,0,0,1,86.67,3a3.35,3.35,0,0,1,2.24.79L92.5,6.83a3.79,3.79,0,0,1,0,5.72l-3.39,3,2.34,1.29a4.2,4.2,0,0,1,1.93,5.11L88.29,36.31l11,3.13A1.74,1.74,0,0,1,100.58,41,1.61,1.61,0,0,1,99,42.65H86.87a2.57,2.57,0,0,1-2-1l-2.64-3.49a4.29,4.29,0,0,0-5.74-1l-8,5.22a4.68,4.68,0,0,0-2.14,3.94v41A5.82,5.82,0,0,1,66,89.17L53.82,124A2,2,0,0,1,52,125.3Z"/><path class="cls-6" d="M86.67,3.47a2.93,2.93,0,0,1,1.92.67l3.58,3.07a3.28,3.28,0,0,1,0,5l-2.85,2.51-1.07.94,1.24.69,1.72,1a3.71,3.71,0,0,1,1.7,4.5L88,35.64l-.36,1,1,.3,10.46,3a1.22,1.22,0,0,1,1,1.09A1.12,1.12,0,0,1,99,42.15H86.87a2.07,2.07,0,0,1-1.64-.81l-2.65-3.48a4.78,4.78,0,0,0-6.4-1.11l-8,5.22a5.19,5.19,0,0,0-2.36,4.36v41A5.37,5.37,0,0,1,65.51,89L53.35,123.83a1.43,1.43,0,0,1-1.36,1,1.81,1.81,0,0,1-.51-.08,1.65,1.65,0,0,1-.9-1.71l5.69-33.36a5.66,5.66,0,0,0,0-2L51.91,62.7a1.47,1.47,0,0,0-1.46-1.24,1.54,1.54,0,0,0-1.08.45A1.49,1.49,0,0,0,49,63l.7,29.06a5,5,0,0,1-.17,1.27L42,123.55a1.18,1.18,0,0,1-1.15.9,1.15,1.15,0,0,1-.31,0,1.29,1.29,0,0,1-.86-1.27l-.28-32.7A6.62,6.62,0,0,0,39.23,89L32,53.85a29.36,29.36,0,0,1,.26-14.08,33.14,33.14,0,0,1,11.2-17.28L65.34,5.94a3.2,3.2,0,0,1,2-.79,4.94,4.94,0,0,1,1,.12,5,5,0,0,1,1.21.45l6.33,3.59a2.21,2.21,0,0,0,1.06.28A2.15,2.15,0,0,0,78.37,9c.62-.58,1.82-1.51,3-2.42s2-1.55,2.59-2.08a4.29,4.29,0,0,1,2.73-1m0-1a5.24,5.24,0,0,0-3.39,1.28c-1.27,1.12-4.4,3.4-5.6,4.52a1.14,1.14,0,0,1-.79.32,1.18,1.18,0,0,1-.57-.15L70,4.85a6.23,6.23,0,0,0-1.51-.56,6.14,6.14,0,0,0-1.16-.14,4.21,4.21,0,0,0-2.58,1L42.79,21.71A33.79,33.79,0,0,0,31.24,39.52,30.32,30.32,0,0,0,31,54.05l7.28,35.18a6.22,6.22,0,0,1,.13,1.21l.28,32.71a2.28,2.28,0,0,0,1.62,2.23,2.13,2.13,0,0,0,.55.07A2.17,2.17,0,0,0,43,123.8l7.5-30.24a5.83,5.83,0,0,0,.2-1.5L50,63a.49.49,0,0,1,.5-.51.47.47,0,0,1,.47.41L55.28,87.8a4.93,4.93,0,0,1,0,1.67l-5.7,33.36a2.65,2.65,0,0,0,1.56,2.82,2.47,2.47,0,0,0,.84.14,2.43,2.43,0,0,0,2.3-1.63L66.45,89.34a6.32,6.32,0,0,0,.35-2.06V46.33a4.21,4.21,0,0,1,1.91-3.52l8-5.22a3.77,3.77,0,0,1,5.06.88L84.43,42a3.06,3.06,0,0,0,2.44,1.2H99A2.12,2.12,0,0,0,101.08,41,2.24,2.24,0,0,0,99.41,39L88.94,36l4.94-13.88a4.72,4.72,0,0,0-2.16-5.71L90,15.43l2.85-2.51a4.28,4.28,0,0,0,0-6.47L89.24,3.38a3.86,3.86,0,0,0-2.57-.91Z"/><path class="cls-7" d="M120,32.74a2.17,2.17,0,0,0-.84-1.84c-1.88-1.29-7-4.53-17.68-4.4-8.75.11-14,3.28-15.89,4.93a2.68,2.68,0,0,0-.87,2s.11,1.62.25,2.24c0,0,0,0,0,.05.12,3,8,5.32,17.67,5.13,9.2-.18,16.63-2.55,17.22-5.39C119.89,35,120,32.74,120,32.74Z"/><path class="cls-7" d="M102.63,40.8C93,41,85.08,38.69,85,35.67s7.62-5.63,17.27-5.82S119.79,32,119.9,35,112.28,40.61,102.63,40.8Z"/><path class="cls-8" d="M56.19,36.44l28.72-.92a2.63,2.63,0,0,0,.76,2.23L56.5,40.9A2.24,2.24,0,0,1,54,38.54h0A2.24,2.24,0,0,1,56.19,36.44Z"/><path class="cls-9" d="M57.36,24.76,75.05,32a2.12,2.12,0,0,1,1.15,2.32,1.89,1.89,0,0,1-2,1.82S50,32.86,43.32,30c-6.38-2.77-1.22-7-1.22-7"/><path class="cls-9" d="M89.09,15.59l-6.22,4.76s-2.69,1.76-5.49-4.87"/><ellipse class="cls-10" cx="103.24" cy="35.71" rx="17.63" ry="7.66" transform="translate(-2.38 7.82) rotate(-4.29)"/></g></g></svg>